<svg width="14756" height="1239" viewBox="0 0 14756 1239" fill="none" xmlns="http://www.w3.org/2000/svg">
<path fill-rule="evenodd" clip-rule="evenodd" d="M14561.8 215.815C14561.4 216.003 14561 215.941 14560.7 215.668C14559.1 214.417 14557.2 213.407 14555.5 212.204C14554.6 211.552 14553.7 210.964 14552.7 210.448C14551.9 210.077 14551.4 209.497 14550.6 209.074L14550.5 208.963C14549.6 208.503 14548.9 207.838 14548.1 207.321C14547.3 206.885 14546.8 206.238 14546.1 205.771C14545.1 205.081 14544.1 204.346 14543.2 203.57C14542.5 203.136 14542 202.6 14541.5 201.987C14541.4 201.812 14541.2 201.775 14541.1 201.667C14540.5 201.218 14540 200.739 14539.4 200.231C14538.4 199.13 14537.2 198.118 14536.2 197.005C14535.4 196.196 14534.6 195.431 14533.8 194.644C14533 193.887 14532.3 193.116 14531.6 192.333C14529.9 190.504 14528.3 188.591 14526.9 186.602C14525.8 185.034 14524.8 183.412 14523.9 181.745C14523.1 180.42 14522.4 179.051 14521.9 177.646C14521.4 176.513 14520.8 175.425 14520.5 174.279C14520.3 173.197 14519.9 172.123 14519.6 171.055C14518.9 168.584 14518.3 166.095 14517.8 163.589C14517.5 162.114 14517.3 160.624 14517 159.158C14516.6 157.438 14516.5 155.696 14516.1 153.976C14515.9 152.968 14515.9 151.902 14515.7 150.868C14515.6 149.867 14515.6 148.856 14515.4 147.863C14515.3 146.866 14515.1 145.863 14515.1 144.857C14515 143.923 14514.7 142.941 14515 141.984C14514.5 141.313 14514.9 140.537 14514.8 139.818C14514.7 139.099 14514.7 138.367 14514.5 137.668C14514.4 136.948 14514.3 136.21 14514.1 135.494C14513.9 134.04 14513.5 132.615 14513.3 131.17C14513.1 130.288 14512.7 129.509 14512.4 128.663C14512 127.044 14511.4 125.468 14510.6 123.958C14510.2 123.357 14510 122.715 14509.9 122.054C14509.8 121.55 14509.3 121.336 14509.1 120.877C14508.8 120.134 14508.4 119.43 14508.1 118.705C14508.1 118.458 14507.9 118.258 14507.6 118.181L14507.8 117.544C14507.7 117.284 14507.6 117.592 14507.4 117.51C14507.2 117.223 14507 116.95 14507 116.559C14507.1 116.192 14506.6 116.083 14506.5 115.741C14506.3 114.997 14505.3 114.491 14505.5 113.59C14504.9 113.079 14504.7 112.339 14504.2 111.716C14504 111.425 14503.9 111.073 14503.9 110.722L14503.9 110.641C14504 110.297 14503.2 110.258 14503.5 109.819C14502.5 108.877 14502.5 107.582 14502 106.454C14501.4 104.644 14500.6 102.866 14500.3 100.947C14500.1 99.987 14499.7 99.0275 14499.5 98.0519C14499.1 95.8588 14498.5 93.6858 14498.4 91.4509C14498.4 90.5278 14498.1 89.6119 14498.1 88.6877L14498 87.6196C14498 86.0173 14498 84.4141 14498.1 82.8115C14498 82.4399 14498.1 82.065 14498.3 81.7291C14498.6 81.3565 14498.1 81.0193 14498.1 80.6091C14498.2 80.1221 14498.5 79.7021 14498.4 79.1693C14498.4 78.8757 14498.6 78.4389 14498.6 78.0984C14498.4 76.9912 14499.1 75.9641 14498.9 74.8599C14499 74.4455 14499.1 74.0414 14499.3 73.6771C14499.8 72.422 14499.6 71.0332 14500.3 69.8396C14500.7 69.2492 14500.9 68.5997 14500.9 67.9424L14500.8 67.6883C14500.8 67.5002 14500.9 67.319 14501 67.2122C14501.5 66.7664 14501.5 66.1364 14501.7 65.5988C14502 65.0231 14502 64.3823 14502.3 63.8091C14502.7 63.2601 14503 62.6534 14503.1 62.0175C14503.2 60.916 14503.9 60.0061 14504.3 59.0378C14504.6 58.5539 14504.6 57.939 14505.3 57.662C14505.6 57.5211 14505 57.0343 14505.5 56.8263L14505.5 56.8052C14505.9 56.6902 14505.9 56.4185 14505.9 56.081C14505.9 55.7724 14506.5 55.6591 14506.4 55.3312C14506.3 55.0033 14506.3 54.5519 14506.5 54.5267C14507 54.4613 14506.6 53.9156 14507.1 53.8904C14507.1 53.8774 14507.2 53.847 14507.2 53.8083C14507.5 52.6961 14508.6 51.894 14509 50.7926C14509.3 50.14 14509.7 49.5416 14510.3 49.029C14510.7 48.525 14511.2 47.9879 14511.5 47.4232C14512.2 46.4813 14513.2 45.757 14513.8 44.8174C14514 44.5631 14514.8 44.7789 14514.5 44.1554C14515 44.0826 14514.9 43.6333 14515.2 43.3956C14515.4 43.2262 14515.7 43.0913 14516 42.9959C14516.3 42.4225 14516.8 41.918 14517.3 41.5232C14518.3 40.6066 14519.4 39.7476 14520.6 38.9513L14521.5 38.2978C14522.8 37.4269 14524.1 36.5837 14525.6 36.0857C14526 35.9578 14525.9 35.5851 14526.3 35.4422C14528.2 34.6015 14530.1 33.5916 14532.2 33.0544C14533.1 32.8291 14533.9 32.3142 14534.8 32.0774C14536.6 31.6017 14538.3 30.9159 14540.3 30.6663C14541.4 30.5191 14542.6 30.2081 14543.7 30.032C14546.1 29.6072 14548.6 29.4357 14551 29.5214L14552.5 29.6054C14553.9 29.6803 14555.2 29.7654 14556.5 29.9372C14557.2 30.0186 14557.7 30.2843 14558.3 30.3099C14558.9 30.3342 14559.5 30.4613 14560 30.6831C14560.4 30.8528 14560.8 30.5879 14561.2 30.8308C14561.5 31.0776 14562 31.1736 14562.4 31.0914L14562.5 31.0726C14562.7 30.996 14563.1 31.2654 14563.4 31.3818C14563.9 31.5151 14564.3 31.6909 14564.8 31.9062C14565.1 32.1047 14565.6 31.7126 14565.8 32.2418C14566.3 32.0059 14566.7 32.3336 14567.1 32.4761L14567.2 32.4943C14567.6 32.6183 14568 32.7927 14568.4 32.9448L14569.8 33.452C14570.2 33.6527 14570.6 33.7991 14571 33.8855C14571.8 33.9268 14572.5 34.3607 14573.2 34.4926C14574.1 34.697 14574.9 34.9938 14575.7 35.3761C14576.4 35.6683 14577.2 35.5258 14577.9 35.8838C14578.6 36.2747 14579.3 36.542 14580.1 36.6687C14580.9 36.7379 14581.6 37.1876 14582.3 37.2258L14582.4 37.228C14583.4 37.2114 14584 37.7828 14584.8 37.8596C14586.5 38.0268 14588.2 38.6722 14589.9 38.8682C14592 39.1155 14594.1 39.595 14596.3 39.752C14597.7 39.8541 14599.2 39.917 14600.6 40.0196C14602 40.0739 14603.5 40.0227 14604.9 39.8666C14606.6 39.7132 14608.4 39.4354 14610.1 39.036C14611.8 38.6512 14613.5 38.0413 14615.2 37.6345C14616 37.4487 14616.7 37.1415 14617.5 36.9754C14618.4 36.7965 14619.2 36.3255 14620 36.1438C14622.2 35.689 14624.2 34.7306 14626.4 34.485C14628.9 33.5126 14631.7 33.3428 14634.4 32.6902C14635.6 32.3857 14636.9 32.3635 14638.2 32.2244L14638.5 32.1927C14640.8 31.9151 14643.1 31.8394 14645.4 31.7448C14647.5 31.6729 14649.6 31.7222 14651.7 31.8924C14653.2 32.0038 14654.8 32.1793 14656.3 32.2659C14656.9 32.3014 14657.4 32.7633 14658.1 32.5354C14659.3 33.0541 14660.8 32.8856 14662 33.4447C14663 33.3527 14663.7 33.7614 14664.5 34.0934C14665.1 34.3479 14665.7 34.1058 14666.3 34.4367C14666.8 34.7822 14667.4 35.0031 14668.1 35.0771C14669.2 35.0983 14670 35.5802 14671 35.9084C14673.1 36.6715 14675.3 37.4671 14677.4 38.2953C14678.1 38.5671 14678.9 38.6317 14679.5 39.2156C14679.9 39.728 14680.9 39.5929 14681.3 40.1813C14681.5 40.3955 14681.8 40.0776 14682 40.2623C14682.6 40.6224 14683.3 40.5577 14683.8 41.1301C14684.1 41.5538 14684.9 41.4249 14685.3 41.9303L14685.3 42.0032C14685.5 42.3607 14686.4 41.719 14686.4 42.4569C14687.2 42.639 14687.8 43.1366 14688.5 43.5186C14689.1 43.8341 14689.8 43.8191 14690.3 44.3662C14690.7 44.8325 14691.6 44.6783 14691.9 45.3316C14692.9 45.4911 14693.5 46.2515 14694.4 46.5672C14695.1 46.8419 14695.7 47.1953 14696.3 47.6179C14697.2 48.2312 14698.2 48.8208 14699.1 49.389C14699.5 49.598 14699.8 49.8234 14700.1 50.0642C14700.3 50.1953 14700.3 50.426 14700.6 50.5236C14702.3 51.1433 14703.6 52.2824 14705 53.3114C14705.8 53.8375 14706.5 54.4177 14707.2 55.0464L14707.4 55.2578C14707.6 55.466 14708.1 55.6246 14708.2 55.8961C14708.7 56.652 14709.4 57.109 14710.1 57.6284L14710.2 57.7156C14710.6 58.0037 14711 58.3393 14711.2 58.7116C14711.3 58.7826 14711.3 58.9189 14711.4 58.9442C14712.6 59.4133 14713.1 60.4459 14714 61.2356C14714.8 61.9993 14715.4 62.8949 14716.3 63.6379C14718 65.1362 14734.9 88.6138 14736.6 92.4737L14737.1 93.5783C14737.6 94.6847 14738.1 95.7971 14738.5 96.9213L14738.8 97.8784C14739.2 98.8371 14739.5 99.801 14739.8 100.771L14740.2 102.066C14740.9 104.656 14741.6 107.255 14742.1 109.892C14742.6 112.245 14742.9 114.61 14743.2 116.978C14743.4 118.499 14743.5 120.014 14743.6 121.54C14743.7 123.979 14743.7 126.418 14743.6 128.857C14743.6 131.154 14743 133.397 14743.1 135.689C14742.4 136.99 14742.8 138.467 14742.1 139.76C14742.3 140.475 14741.9 141.128 14741.7 141.783C14741.6 142.459 14741.6 143.199 14741.2 143.841C14740.9 144.133 14741.2 144.56 14740.9 144.915C14740.7 145.203 14740.6 145.578 14740.7 145.937C14740.1 146.068 14740.7 146.492 14740.4 146.761C14740.1 147.053 14739.9 147.425 14739.9 147.817C14739.8 148.705 14739.1 149.416 14739.1 150.212C14739 151.026 14738.4 151.634 14738.3 152.35L14738.2 152.485C14738.1 153.436 14737.2 154.026 14737 154.91C14737 154.988 14736.8 155.027 14736.6 155.087C14736.6 155.292 14736.9 155.286 14737 155.469C14736.7 155.642 14736.4 155.855 14736.1 156.1C14735.9 156.456 14735.7 156.832 14735.6 157.222L14736.1 158.155C14735.8 158.584 14735.8 159.026 14735.3 159.339C14735.2 159.476 14735.1 159.981 14735.1 160.318C14734.9 160.76 14734.2 160.925 14734.3 161.301C14734.4 161.725 14734.2 162.149 14734 162.502C14732.3 165.973 14730.6 169.439 14728.9 172.898C14728.7 173.269 14728.7 173.769 14728.1 173.912C14728.6 174.54 14727.6 174.584 14727.5 175.008C14727.4 175.394 14727.1 175.745 14726.8 176.037C14726.3 176.601 14726.1 177.367 14725.7 178.034C14725.6 178.521 14725.3 178.959 14724.8 179.299C14724.4 179.571 14724.4 180.151 14724 180.569C14723.5 181.067 14723.1 181.62 14722.7 182.214C14722.6 182.654 14722.3 183.048 14721.9 183.351C14721.6 183.585 14721.7 184.199 14721.1 184.322C14720.7 185.107 14720.1 185.671 14719.5 186.317L14719.4 186.439C14718 188.108 14716.5 189.703 14714.9 191.216C14713.6 192.492 14712.3 193.787 14711 195.052C14710.5 195.459 14710.1 195.862 14709.6 196.241C14708 197.647 14706.3 198.974 14704.5 200.214C14702.8 201.276 14701.2 202.404 14699.5 203.407C14698.6 203.94 14697.9 204.643 14697 205.22C14694.9 206.583 14692.7 207.894 14690.5 209.11C14688.7 210.247 14686.7 211.221 14684.6 212.021C14684 212.213 14683.5 212.546 14682.9 212.771C14682.3 212.966 14681.6 213.203 14681 213.477C14680.3 213.901 14679.4 214.113 14678.7 214.497C14678.1 214.796 14677.4 214.46 14676.9 215.079C14676.5 215.529 14675.6 215.2 14675.1 215.723C14674.2 215.611 14673.7 216.305 14672.8 216.429L14672.7 216.442C14671.8 216.515 14670.9 217.007 14670 217.315C14669.2 217.668 14668.3 217.971 14667.4 218.221C14665.7 218.592 14664.2 219.314 14662.6 219.71C14661 220.087 14659.5 220.764 14657.9 220.856C14657.5 220.877 14657.5 221.174 14657.2 221.257C14656.9 221.344 14656.7 221.215 14656.4 221.325C14655.3 221.739 14654.1 222.075 14653 222.329C14651.3 222.738 14649.6 223.107 14648 223.526C14645.5 224.141 14642.9 224.638 14640.3 225.016C14638.6 225.285 14636.9 225.502 14635.2 225.734L14632.8 226.06C14631.6 226.222 14630.4 226.38 14629.2 226.52C14627.7 226.697 14626.2 226.785 14624.7 226.946C14623.5 227.072 14622.3 227.243 14621.1 227.412C14619.5 227.647 14617.8 227.832 14616.2 228.057C14613.8 228.365 14611.5 228.56 14609.1 228.639C14607.9 228.71 14606.7 228.715 14605.5 228.653C14604.9 228.603 14604.2 228.589 14603.5 228.611L14603.2 228.626C14601.7 228.717 14600.2 228.443 14598.7 228.33C14598.2 228.294 14597.8 228.172 14597.3 228.098L14597.1 228.07C14596.8 228.021 14596.4 227.948 14596 227.88L14595.8 227.829C14594.5 227.6 14593.2 227.175 14591.9 227.093L14591.6 227.082C14591.6 227.082 14591.5 227.062 14591.4 227.025C14590.1 226.386 14588.6 226.338 14587.2 225.801L14587 225.701C14585.7 225.136 14584.2 225.143 14583 224.497C14582.1 224.63 14581.4 224.013 14580.5 223.881C14578.4 223.54 14576.5 222.607 14574.5 221.894L14574.2 221.803C14572.1 221.086 14570.1 220.285 14568 219.532C14566.6 218.928 14565.3 218.225 14564 217.43C14563.7 217.208 14563.4 217.018 14563.1 216.863C14562.5 216.693 14562 216.312 14561.8 215.815Z" fill="#FFA500"/>
<path fill-rule="evenodd" clip-rule="evenodd" d="M14591.9 114.395C14590.4 119.602 14586.8 123.662 14581.2 126.948C14582.6 123.317 14584.5 119.068 14585.9 115.438C14584.5 117.915 14582 120.344 14579.2 121.665C14581 116.2 14584.7 111.855 14584.7 104.928C14584.7 102.438 14581.6 100.514 14581.7 99.5007C14581.8 98.4761 14582.4 97.5594 14582.9 96.6205C14585.7 91.3664 14592.9 116.549 14591.9 114.395Z" fill="white"/>
<path fill-rule="evenodd" clip-rule="evenodd" d="M14703 68.8921C14703 68.8861 14702.9 68.8791 14702.8 68.8712C14702.9 68.7898 14703 68.7952 14703 68.8921ZM14659 147.118C14658.8 147.325 14658.5 147.53 14658.2 147.735C14658 147.735 14657.1 146.397 14655.8 144.536C14654.7 142.822 14653.2 140.665 14651.7 138.702C14650.4 136.987 14648.9 135.441 14647.9 134.333C14647 133.325 14646.4 132.679 14646.5 132.595C14649.4 130.774 14652.4 129.082 14655.5 127.392C14660.3 124.661 14665.2 121.933 14669.6 118.667C14681.2 109.943 14689.3 98.9854 14694.1 89.5828C14698.2 81.6511 14700.4 75.3826 14701.6 71.8861C14702.2 70.1673 14702.6 69.1185 14702.8 68.8712C14700.3 68.5674 14698 66.8645 14697.4 64.7104C14696.6 62.4998 14697.6 59.9558 14699.8 58.58C14702.1 57.0419 14702.9 54.2758 14703.1 51.7196C14703.2 51.1927 14703.2 50.6611 14703.2 50.1287C14703.4 48.0781 14703.5 46.0155 14704.5 44.1637C14704.8 43.4394 14705.5 42.685 14706.4 42.667C14707.9 42.6384 14708.4 44.3186 14708.4 45.5887L14708.7 51.282C14709.3 50.328 14711.1 50.565 14711.9 51.45C14712.6 52.3349 14712.6 53.5209 14712.5 54.6143C14712.9 52.1874 14714 49.8466 14715.7 47.9192C14716.3 47.3142 14717.1 46.6927 14717.9 46.9244C14718.8 47.1693 14719 48.1612 14719.1 48.972C14719.3 56.0064 14716.9 63.0983 14712.3 68.8667C14711.4 69.9797 14710.9 71.2691 14710.6 72.6076C14710.7 73.5458 14710.8 74.5573 14710.6 75.4013C14709.1 85.0293 14706.7 94.5409 14703.2 103.785C14701.2 109.285 14698.7 114.785 14694.7 119.333C14692.5 121.732 14689.9 123.817 14687.3 125.879C14679.4 132.199 14669.8 139.353 14661.3 145.686C14660.2 146.544 14659.1 147.387 14658 148.21C14657.9 148.21 14658.3 147.83 14659 147.118Z" fill="white"/>
<path d="M14573.2 178.894C14573.9 180.55 14575.6 182.667 14575.6 182.667C14575.6 182.667 14563.9 197.061 14559.4 205.285C14555.3 212.928 14551.1 230.625 14538.2 220C14544.4 204.943 14550.5 189.805 14559.4 175.834C14563.4 169.481 14567 167.226 14567 167.226C14567 167.226 14570.9 173.1 14573.2 178.894Z" fill="white"/>
<path fill-rule="evenodd" clip-rule="evenodd" d="M14586 93.491C14585.2 94.1372 14585.9 95.4001 14586.8 95.9512C14587.8 96.5023 14589 96.9198 14589.4 97.8712C14587.9 97.9483 14586.6 96.8829 14585.2 97.0238C14583.6 97.1795 14582.6 98.8324 14582.9 100.201C14583.2 101.569 14584.4 102.657 14585.6 103.567C14587.5 104.985 14589.6 106.177 14591.9 107.098C14592.7 107.435 14593.6 108.455 14592.8 108.811C14592.1 108.432 14591.3 108.054 14590.5 107.675C14591.8 111.113 14593.1 114.621 14595.6 117.517C14598.1 120.413 14602 122.638 14606.1 122.429C14606.9 122.389 14608.1 122.539 14608 123.232C14607.5 123.34 14606.9 123.449 14606.4 123.557C14608.1 124.787 14610.4 125.087 14612.6 124.771C14614.7 124.454 14616.7 123.591 14618.6 122.702C14622.5 120.92 14626.4 118.933 14629.2 116.017C14631.1 114.015 14632.5 111.647 14633.6 109.224C14637.1 101.559 14638.4 93.1096 14637.2 84.9093C14637.2 84.4973 14636.9 83.9518 14636.4 84.0798C14625.4 87.1813 14613.1 86.3275 14602.8 81.7594C14600.5 80.7711 14598.3 79.5467 14597 77.6806C14601.8 80.2371 14607 82.1859 14612.4 83.4453C14617.7 84.6799 14623.3 85.2511 14628.7 84.5403C14634.1 83.8295 14639.4 81.7676 14643.2 78.3036C14648.3 73.5824 14650.2 66.6622 14649.5 60.1855C14648.8 53.7088 14645.7 47.6025 14641.9 41.9663C14640.8 45.814 14637 48.7527 14632.8 50.1558C14628.5 51.5589 14623.8 51.6431 14619.3 51.4494C14614.8 51.2556 14610.2 50.802 14605.7 51.1936C14602.9 51.4361 14599.9 52.0945 14598 53.9164C14595.2 56.6899 14595.8 60.958 14596.6 64.6234C14595.3 64.0435 14594.6 62.6639 14595 61.4637C14590 62.2721 14586.3 66.3537 14585 70.667C14583.7 74.9803 14584.3 79.5293 14585 83.9516C14585.2 85.8286 14585.5 87.7057 14585.8 89.5828C14585.9 90.7289 14586.2 91.9574 14587.1 92.8003C14589.9 95.4533 14591.9 98.7976 14592.8 102.356C14595.9 97.7761 14598 92.7218 14599.1 87.4999C14599.3 86.3239 14599.5 85.0943 14600.3 84.1095C14601.1 83.1248 14602.6 82.4815 14603.9 83.016C14599 89.5174 14598.7 98.3311 14592.7 104.049C14591.7 101.878 14590.7 99.7058 14589.7 97.534C14589 95.877 14588 94.0287 14586 93.491Z" fill="white"/>
<path fill-rule="evenodd" clip-rule="evenodd" d="M14658.1 158.038C14654.2 160.455 14650.2 162.727 14646.1 164.847C14645.2 170.317 14643.1 180.83 14641.5 189.691C14640.8 193.721 14640.8 197.15 14640.1 199.968C14638.9 205.699 14633.5 208.746 14627.1 208.468C14589.3 206.844 14588.7 224.28 14587.3 213.017C14585.8 201.754 14585.2 190.414 14585.3 179.082C14582.4 180.953 14579.5 182.823 14576.6 184.694C14575.6 183.469 14567.4 171.953 14567.9 167.757C14568.3 163.181 14574.1 156.538 14580.8 151.308C14584.9 148.05 14589.8 145.677 14592.7 143.663C14593.9 142.849 14600 138.027 14601.4 133.318C14602.9 128.389 14599.7 123.57 14602.5 122.925C14604.7 122.416 14606.1 123.926 14608.6 124.888C14610.5 125.627 14613.6 124.313 14614.3 125.358C14615 126.403 14614.1 130.532 14615.9 132.119C14619.4 135.061 14626.5 135.554 14627.1 135.5C14634.7 134.79 14642.8 131.742 14645.1 132.5C14653.1 135.106 14659.1 148.192 14660.4 152.682C14660.7 153.706 14661 154.812 14660.5 155.796C14660.1 156.766 14659.1 157.433 14658.1 158.038Z" fill="white"/>
<path fill-rule="evenodd" clip-rule="evenodd" d="M14648.8 134.776C14648.6 134.508 14648.3 134.271 14648.1 134.063C14647.1 133.055 14646.3 132.707 14646.5 132.595C14654.1 127.831 14662.5 123.955 14669.6 118.667C14681.2 109.943 14689.3 98.9854 14694.1 89.5828C14697.8 82.3871 14692.5 98.895 14680.3 114.778C14670.2 127.84 14649.2 135.24 14648.8 134.776Z" fill="#E7EAEE"/>
<path fill-rule="evenodd" clip-rule="evenodd" d="M14658.1 158.038C14659.1 157.433 14660.1 156.766 14660.5 155.796C14661 154.812 14660.7 153.706 14660.4 152.682C14658.2 144.982 14653.3 137.889 14646.5 132.595C14674.8 120.383 14696.2 96.737 14703.2 69.9609C14697.1 85.193 14688.9 100.044 14676.5 112.086C14664.2 124.128 14647.3 133.196 14628.9 134.901C14624.8 135.281 14620.2 135.168 14617.1 132.78C14614 130.392 14614.1 125.043 14618 123.924C14625.4 121.821 14631.3 116.617 14634.6 110.519C14638 104.421 14638.9 97.4991 14638.5 90.7583C14638.3 87.6892 14638.1 84.0411 14640.9 82.1875C14648.1 77.4974 14651.5 69.3361 14651.1 61.5665C14650.7 53.7969 14646.8 46.4086 14641.8 40C14640.1 44.5446 14635.7 48.2698 14630.5 49.6701C14626.1 50.8439 14621.4 50.4288 14616.8 50.0122C14614.6 49.8091 14612.3 49.6056 14610 49.5857C14603.2 49.5251 14595.1 52.4595 14594.3 58.3821C14594 60.3209 14592 61.4407 14590 62.5467C14589.4 62.9064 14588.8 63.2646 14588.2 63.6491C14582.9 67.1422 14582.4 73.8544 14583.3 79.5746C14583.4 80.3995 14583.5 81.2317 14583.6 82.0678C14584.4 87.029 14585.3 92.1241 14582.9 96.6204C14582.8 96.8197 14582.7 97.018 14582.6 97.2165C14582.2 97.9534 14581.8 98.6935 14581.7 99.5007C14581.4 101.818 14583.5 103.37 14585.7 104.966C14586.9 105.814 14588.1 106.674 14588.9 107.668C14591 110.124 14591 113.574 14589.7 116.422C14588.4 119.27 14586.1 121.652 14583.8 123.976C14586.2 119.8 14587.5 115.108 14587.4 110.426L14580.9 119.9C14583.2 115.159 14584.5 110.061 14584.7 104.928L14579.5 121.322C14582.2 120.002 14584.5 117.915 14585.9 115.438L14581.6 126.33C14586.5 123.558 14590.2 119.253 14591.9 114.395C14592.9 116.549 14594.5 118.465 14596.6 119.872C14604 124.753 14603.4 136.107 14595.6 140.42C14580.1 148.989 14568.3 161.864 14559.4 175.834C14550.5 189.805 14544.4 204.943 14538.2 220C14547.1 202.286 14556.6 184.856 14566.9 167.757C14569.3 173.726 14572.6 179.431 14576.6 184.694L14585.3 179.082C14585.2 190.414 14585.8 201.754 14587.3 213.017C14589 213.176 14589.4 210.982 14589.1 209.495C14586.5 195.263 14586.2 180.728 14588 166.406C14586.3 167.365 14586.2 169.366 14586.2 171.238C14586.2 171.592 14586.2 171.942 14586.2 172.28C14585.9 176.921 14581.9 181.234 14576.8 182.441C14574.1 179.511 14571.4 176.519 14569.9 173.025C14568.4 169.531 14568.2 165.391 14570.5 162.234C14576.7 153.757 14585.6 146.786 14595.9 142.312C14600.5 146.192 14605.9 149.307 14611.8 151.437C14613.7 152.114 14615.9 152.688 14617.7 151.955C14619 151.449 14619.9 150.407 14620.6 149.38C14623.5 145.489 14625.6 141.158 14626.8 136.644C14632.4 135.959 14637.9 134.938 14643.2 133.591C14645.4 133.046 14647.5 134.584 14649 136.082C14653.5 140.728 14656.9 146.251 14658.8 152.14C14659.2 153.341 14659.5 154.66 14658.9 155.799C14658.4 156.715 14657.5 157.354 14656.5 157.933C14653 160.099 14649.3 162.016 14645.4 163.66C14645.8 160.004 14644.8 156.236 14642.4 153.168C14646.1 161.718 14644.2 170.788 14642.2 179.951C14640.7 186.951 14639.2 194.005 14640.2 200.924L14646.1 164.847C14650.2 162.727 14654.2 160.455 14658.1 158.038ZM14586 93.491C14588 94.0287 14589 95.877 14589.7 97.534L14592.7 104.049C14596.1 100.86 14597.6 96.7068 14599.2 92.5294C14600.4 89.2179 14601.7 85.8909 14603.9 83.016C14602.6 82.4815 14601.1 83.1248 14600.3 84.1095C14599.6 85.0283 14599.3 86.1602 14599.1 87.2629C14599.1 87.342 14599.1 87.4211 14599.1 87.4999C14598 92.7218 14595.9 97.7761 14592.8 102.356C14591.9 98.7976 14589.9 95.4533 14587.1 92.8003C14586.2 91.9574 14585.9 90.7289 14585.8 89.5828L14585 83.9516C14584.3 79.5293 14583.7 74.9802 14585 70.6669C14586.3 66.3536 14590 62.2721 14595 61.4637C14594.6 62.6639 14595.3 64.0435 14596.6 64.6234C14595.8 60.958 14595.1 56.6899 14598 53.9164C14599.9 52.0945 14602.9 51.4361 14605.7 51.1936C14609.1 50.894 14612.6 51.0891 14616.1 51.2841C14617.2 51.3439 14618.2 51.4038 14619.3 51.4493C14623.8 51.6431 14628.5 51.5589 14632.8 50.1558C14637 48.7527 14640.8 45.814 14641.9 41.9663C14645.7 47.6025 14648.8 53.7088 14649.5 60.1855C14650.2 66.6622 14648.3 73.5824 14643.2 78.3036C14639.4 81.7676 14634.1 83.8295 14628.7 84.5403C14623.3 85.251 14617.7 84.6799 14612.4 83.4453C14607 82.1858 14601.8 80.2371 14597 77.6806C14598.3 79.5467 14600.5 80.7711 14602.8 81.7594C14613.1 86.3275 14625.4 87.1813 14636.4 84.0798C14636.9 83.9518 14637.2 84.4973 14637.2 84.9093C14638.4 93.1095 14637.1 101.559 14633.6 109.224C14632.5 111.647 14631.1 114.015 14629.2 116.017C14626.4 118.933 14622.5 120.92 14618.6 122.702C14616.7 123.591 14614.7 124.454 14612.6 124.771C14610.4 125.087 14608.1 124.787 14606.4 123.557L14608 123.232C14608.1 122.539 14606.9 122.389 14606.1 122.429C14602 122.638 14598.1 120.413 14595.6 117.517C14593.1 114.621 14591.8 111.113 14590.5 107.675L14592.8 108.811C14593.6 108.454 14592.7 107.435 14591.9 107.098C14589.6 106.177 14587.5 104.985 14585.6 103.567C14584.4 102.657 14583.2 101.569 14582.9 100.201C14582.6 98.8324 14583.6 97.1794 14585.2 97.0237C14585.9 96.9516 14586.6 97.1963 14587.3 97.4416C14588 97.6749 14588.6 97.9088 14589.4 97.8712C14589.1 97.1275 14588.3 96.7101 14587.5 96.3001C14587.3 96.1855 14587.1 96.0715 14586.8 95.9512C14585.9 95.4001 14585.2 94.1372 14586 93.491ZM14605.7 124.449C14607.7 125.81 14610.5 126.321 14613.1 125.808C14611.9 128.431 14613.4 131.532 14615.8 133.334C14618.3 135.136 14621.6 135.879 14624.8 136.324C14624.7 141.265 14622.7 146.162 14619.1 150.003C14618 151.132 14616 150.887 14614.4 150.455C14608.1 148.744 14602.3 145.731 14597.5 141.732C14597.9 141.214 14598.6 140.922 14599.2 140.629C14599.8 140.359 14600.5 140.089 14600.9 139.64C14601.3 139.233 14601.4 138.719 14601.6 138.215C14603.2 133.268 14603.6 127.99 14602.5 122.925C14603.5 122.939 14604.3 123.511 14605.1 124.07C14605.3 124.2 14605.5 124.328 14605.7 124.449ZM14702.3 59.8123C14700.7 60.6145 14698.8 61.7049 14698.8 63.3388C14698.8 64.7341 14700 65.6694 14701.3 66.6339C14702.2 67.3147 14703.1 68.0101 14703.6 68.8921C14701 68.6563 14698.6 66.9209 14697.9 64.7103C14697.2 62.4998 14698.2 59.9557 14700.3 58.58C14702.7 57.0418 14703.4 54.2757 14703.7 51.7195C14703.7 51.193 14703.8 50.6617 14703.8 50.1296L14703.8 50.1286C14703.9 48.0781 14704.1 46.0155 14705 44.1636C14705.4 43.4394 14706.1 42.685 14707 42.667C14708.4 42.6384 14709 44.3186 14709 45.5886L14709.3 51.282C14709.9 50.328 14711.7 50.565 14712.4 51.45C14713.2 52.3349 14713.2 53.5209 14713.1 54.6143C14713.5 52.1873 14714.6 49.8466 14716.3 47.9191C14716.8 47.3142 14717.7 46.6927 14718.5 46.9244C14719.4 47.1693 14719.6 48.1612 14719.6 48.9719C14719.9 56.0064 14717.5 63.0982 14712.9 68.8666C14711.4 70.7047 14711 73.0234 14710.7 75.2504L14710.6 75.4013C14709.2 85.0293 14706.7 94.5409 14703.2 103.785C14701.2 109.285 14698.8 114.785 14694.7 119.333C14692.5 121.732 14689.9 123.817 14687.4 125.879C14678.4 133.055 14669.3 140.097 14660 147C14659.2 147 14659.6 145.889 14660.2 145.441C14662.2 143.929 14664.2 142.428 14666.2 140.927L14666.2 140.926C14674.7 134.618 14683.2 128.305 14690.8 121.141C14693 119.053 14695.1 116.883 14696.7 114.45C14698.3 112.108 14699.5 109.558 14700.5 106.997C14705.2 95.7414 14708.5 84.0367 14710.3 72.1617C14710.4 71.3093 14710.5 70.386 14710 69.6415C14716.2 63.8666 14719.2 55.6874 14718.2 47.863C14715.8 48.8241 14715.3 51.1565 14714.7 53.558C14714.3 55.5706 14713.8 57.6317 14712.2 58.975L14712 53.2903C14712 52.7446 14711.9 52.0937 14711.3 51.8533C14710.4 51.4567 14709.6 52.5982 14709.5 53.4955C14709.4 54.3929 14709.2 55.5729 14708.2 55.7214C14708.5 51.585 14708.2 47.4111 14707.3 43.3375C14705.1 45.1909 14705 48.216 14705 50.9726C14705 51.1427 14704.9 51.3119 14704.9 51.4796C14704.9 54.3653 14704 57.8093 14700.9 58.8119C14701.7 59.3196 14702.5 58.8091 14703.4 58.2876C14703.7 58.0624 14704.1 57.8351 14704.5 57.687C14706.6 56.8649 14708.9 59.1369 14708.4 61.0527C14707.8 62.9685 14705.3 64.0583 14703 64.05C14703.5 63.3578 14704.4 62.9385 14705.3 62.5356C14706.5 62.0042 14707.6 61.5012 14707.6 60.438C14707.5 59.5134 14706.4 58.8783 14705.3 58.8844C14704.2 58.8905 14703.2 59.3578 14702.3 59.8123ZM14604.1 93.0463C14604.1 92.7063 14604.7 92.6562 14605.1 92.6703C14606.3 92.7139 14607.6 92.3927 14608.7 92.0576L14608.9 92.0101C14610.1 91.6896 14611.2 91.3645 14612.4 91.3352C14613.7 91.3044 14615 91.6561 14615.8 92.4964C14615.9 92.6071 14615.9 92.738 14615.9 92.875C14615.9 93.1093 14615.5 93.2218 14615.3 93.1627C14615 93.1167 14614.9 93.0035 14614.7 92.8909C14614.6 92.8589 14614.6 92.827 14614.5 92.7966C14613.1 91.9691 14611.2 92.3262 14609.6 92.8254C14609.5 92.8468 14609.5 92.8685 14609.4 92.8903L14609.3 92.9403C14607.8 93.4123 14606.2 93.9121 14604.7 93.5329C14604.4 93.4609 14604 93.2961 14604.1 93.0463ZM14618.3 109.315C14619.3 109.354 14620.3 109.374 14621.1 108.889C14622.2 108.211 14622.3 106.851 14622.2 105.687C14622.1 104.998 14622 104.313 14621.9 103.628C14621.7 102.688 14621.5 101.747 14621.5 100.796C14621.4 99.1524 14621.8 97.395 14623.2 96.2478C14623.3 95.8489 14622.7 95.5632 14622.2 95.7024C14621.8 95.8416 14621.5 96.2264 14621.4 96.5952C14620.1 99.114 14620.4 101.966 14620.7 104.747C14620.7 105.17 14620.8 105.591 14620.8 106.009C14620.9 106.685 14620.9 107.481 14620.3 107.893C14619.8 108.199 14619.2 108.166 14618.6 108.132L14618.6 108.132C14618.4 108.121 14618.2 108.111 14618 108.112C14617.6 108.114 14617.2 108.244 14617.1 108.585C14617 109.067 14617.7 109.292 14618.3 109.315ZM14615.9 96.0049C14616.3 95.9492 14616.7 96.3763 14616.7 96.7792C14616.7 97.182 14616.4 97.5349 14616.1 97.8193C14614.9 98.8493 14613.2 99.3251 14611.6 99.3332C14609.9 99.3413 14608.3 98.92 14606.8 98.3611C14606.5 98.2402 14606.1 98.1068 14605.9 97.8765C14605.6 97.6462 14605.5 97.2936 14605.7 97.0069C14605.8 96.7201 14606.3 96.5919 14606.5 96.8193C14607.7 97.8519 14609.4 98.1188 14611 98.1428C14612.5 98.1646 14614.1 97.9319 14615 96.8504C14615 96.7897 14615 96.7255 14615.1 96.6606C14615.3 96.3626 14615.5 96.0512 14615.9 96.0049ZM14635.4 97.5784C14633.5 98.9542 14630.7 99.3833 14628.4 98.6367C14627.8 98.4304 14627.1 98.1217 14626.8 97.6371C14626.7 97.4477 14626.6 97.2158 14626.7 97.0119C14626.8 96.6822 14627.4 96.5952 14627.8 96.7229C14628.1 96.8192 14628.4 96.9978 14628.6 97.176C14628.7 97.2341 14628.8 97.2921 14628.8 97.3472C14630.3 98.3198 14632.6 98.3478 14634.1 97.4111L14634.1 97.3795L14634.2 97.3503C14634.4 97.1973 14634.7 97.0374 14634.9 97.0334C14635.3 97.0288 14635.6 97.3913 14635.4 97.5784ZM14574.4 182.667C14573.7 183.024 14573.2 183.605 14572.8 184.174C14568 190.007 14563.7 196.189 14560.1 202.633C14556.5 209.143 14553.4 215.907 14550.4 222.661C14550.2 223.233 14549.9 223.896 14550.3 224.435C14550.7 225.181 14552.1 225.145 14552.8 224.581C14553.6 224.018 14553.8 223.144 14554.1 222.324C14558.3 208.645 14565.3 195.646 14574.3 183.837C14574.5 183.476 14574.8 182.942 14574.4 182.667ZM14613.9 117.6C14614 118.275 14613.1 118.661 14612.3 118.667C14611.5 118.672 14610.6 118.408 14610.1 117.791C14609.7 117.173 14609.9 116.184 14610.7 115.932L14605.3 114.133C14604.9 113.981 14604.4 113.827 14603.9 113.898C14603.8 113.914 14603.7 113.942 14603.6 113.97C14603.4 114.018 14603.2 114.065 14603 114.054C14602.7 114.038 14602.4 113.766 14602.6 113.529C14602.6 113.44 14602.7 113.383 14602.8 113.33L14604.8 112.233C14605 112.108 14605.2 111.979 14605.5 112.003C14605.8 112.027 14606 112.29 14605.9 112.493C14605.5 113.097 14606.5 113.658 14607.2 113.832C14609.8 114.418 14612.3 115.007 14614.9 115.135C14617.5 115.263 14620.3 114.9 14622.5 113.696C14623.2 113.327 14624 112.871 14624.7 113.249C14624.5 113.92 14623.7 114.292 14622.9 114.656C14622.1 115.063 14621.3 115.459 14621.2 116.253C14621.1 117.073 14620.3 117.789 14619.4 117.828C14618.5 117.866 14617.6 117.221 14617.4 116.411C14617.4 116.282 14617.2 116.232 14617.1 116.21C14616.4 116.108 14615.7 116.055 14615.1 116.262C14614.5 116.469 14613.9 117.001 14613.9 117.6ZM14613 116.146C14612.7 115.823 14612.1 115.872 14611.7 116.166C14611.4 116.461 14611.3 116.915 14611.4 117.329C14611.8 117.524 14612.3 117.482 14612.6 117.228C14613 116.974 14613.1 116.524 14613 116.146ZM14620 116.389C14620 116.226 14620.2 116.08 14620.3 115.993C14620.1 115.68 14619.6 115.803 14619.2 115.965C14619 116.051 14618.8 116.167 14618.8 116.357C14618.8 116.591 14619.1 116.771 14619.3 116.743C14619.6 116.714 14619.8 116.551 14620 116.395L14620 116.389ZM14631.1 94.03C14631.3 94.0861 14631.6 94.1422 14631.8 94.1833C14633.2 94.3963 14634.6 94.1829 14635.7 93.6037C14636 93.4495 14635.7 93.0471 14635.4 93.0172C14635.1 92.9941 14634.8 93.0924 14634.6 93.1898C14634.5 93.2184 14634.4 93.2469 14634.4 93.2722C14633.4 93.5979 14632.3 93.4105 14631.3 93.2239C14630.1 93.0292 14629 92.8355 14628.1 93.2265C14627.7 93.3676 14627.4 93.6232 14627.4 93.9294C14627.4 94.2355 14628 94.4719 14628.2 94.2398C14628.7 93.8674 14629.4 93.7727 14630 93.8335C14630.4 93.8694 14630.7 93.9497 14631.1 94.03Z" fill="#00160A"/>
<path fill-rule="evenodd" clip-rule="evenodd" d="M14613.1 125.808C14612.3 125.959 14611.5 126.021 14610.8 126C14608.9 125.948 14606.9 131.488 14610.8 137.806C14614.6 144.015 14621.9 146.499 14622.8 144.533C14624.1 141.936 14624.8 139.137 14624.8 136.324C14621.6 135.879 14618.3 135.136 14615.8 133.334C14613.4 131.532 14611.9 128.431 14613.1 125.808Z" fill="#E7EAEE"/>
<ellipse cx="14599.1" cy="109.667" rx="2.296" ry="2" fill="#FFB61D"/>
<ellipse cx="14628.2" cy="110.333" rx="2.296" ry="2" fill="#FFB61D"/>
<path fill-rule="evenodd" clip-rule="evenodd" d="M14603.4 182.025C14604.2 181.133 14605.9 181.61 14607.2 181.957C14610.6 182.879 14614.7 182.014 14617.1 179.849C14619.6 177.671 14624.3 180.435 14627.6 179.131C14629.6 178.345 14631.2 176.112 14633.2 176.739C14635.7 177.509 14638.7 177.004 14640.7 175.52L14640.7 175.066L14640.7 174.065C14638.7 175.705 14635.5 176.292 14632.9 175.488C14630.9 174.86 14629.3 177.093 14627.3 177.88C14624 179.184 14619.3 176.42 14616.8 178.598C14614.4 180.72 14610.4 181.593 14607.1 180.759L14606.4 180.58C14605.2 180.266 14603.8 179.987 14603.1 180.774C14600.9 183.256 14596.3 184.206 14593 182.904L14593.4 184.215L14593.6 184.284C14596.9 185.389 14601.2 184.42 14603.4 182.025ZM14600.2 168.923C14601.1 168.083 14602.8 168.581 14604 168.943C14607.4 169.909 14611.5 169.17 14614.1 167.142C14616.7 165.102 14621.2 167.871 14624.6 166.691C14626.6 165.979 14628.3 163.865 14630.3 164.516C14632.7 165.314 14641.5 161.044 14641.5 161.044C14639.3 160.936 14632.7 164.115 14630.2 163.36L14630 163.304C14628 162.654 14626.4 164.768 14624.3 165.479C14621 166.66 14616.4 163.89 14613.8 165.931C14611.3 167.918 14607.3 168.668 14604 167.788L14603.3 167.601C14602.2 167.271 14600.8 166.97 14600 167.711C14597.7 170.05 14591 168.868 14589.8 169.531C14589.8 169.531 14598 171.179 14600.2 168.923Z" fill="#FFB61D"/>
<path fill-rule="evenodd" clip-rule="evenodd" d="M14602.7 206.814C14603.5 205.922 14605.2 206.399 14606.5 206.745C14609.9 207.668 14614 206.803 14616.4 204.638C14618.9 202.46 14623.6 205.224 14626.9 203.919C14628.9 203.133 14630.5 200.9 14632.5 201.528C14635 202.298 14638.1 201.793 14640 200.309L14640 199.855L14640 198.854C14638 200.494 14634.8 201.081 14632.2 200.277C14630.2 199.649 14628.6 201.882 14626.6 202.668C14623.3 203.972 14618.6 201.209 14616.1 203.387C14613.7 205.508 14609.8 206.381 14606.4 205.547L14605.7 205.369C14604.5 205.054 14603.1 204.776 14602.4 205.562C14600.2 208.044 14595.6 208.995 14592.3 207.693L14592.7 209.004L14592.9 209.073C14596.3 210.178 14600.5 209.209 14602.7 206.814ZM14599.6 193.711C14600.4 192.871 14602.1 193.369 14603.3 193.732C14606.7 194.698 14610.8 193.959 14613.4 191.931C14616 189.89 14620.5 192.66 14623.9 191.479C14625.9 190.768 14627.6 188.654 14629.6 189.304C14632 190.103 14640.9 185.833 14640.9 185.833C14638.6 185.725 14632.1 188.904 14629.5 188.149L14629.4 188.093C14627.4 187.442 14625.7 189.556 14623.7 190.268C14620.3 191.448 14615.7 188.679 14613.2 190.72C14610.6 192.707 14606.6 193.457 14603.3 192.577L14602.6 192.39C14601.5 192.059 14600.1 191.759 14599.3 192.5C14597 194.839 14590.3 193.656 14589.1 194.319C14589.1 194.319 14597.3 195.968 14599.6 193.711Z" fill="#FFB61D"/>
<path fill-rule="evenodd" clip-rule="evenodd" d="M14595.7 65.7745C14597.9 66.9616 14606.1 53.9164 14618.1 53.9164C14643.7 53.9164 14645.7 47.6025 14641.9 41.9663C14640.8 45.814 14637 48.7527 14632.8 50.1558C14628.5 51.5589 14623.8 51.6431 14619.3 51.4494C14614.8 51.2556 14610.2 50.802 14605.7 51.1936C14602.9 51.4361 14599.9 52.0945 14598 53.9164C14595.2 56.6899 14595.8 60.958 14596.6 64.6234C14595.3 64.0435 14594.6 62.6639 14595 61.4637C14590 62.2721 14586.3 66.3537 14585 70.667C14583.7 74.9803 14584.3 79.5293 14585 83.9516C14585.2 85.8286 14585.5 87.7057 14585.8 89.5828C14585.8 89.5828 14586.9 74.4615 14588.5 70.667C14590.6 65.5013 14596.2 66.4918 14595.7 65.7745Z" fill="#E7EAEE"/>
<path fill-rule="evenodd" clip-rule="evenodd" d="M39.2257 1155.34C39.1659 1157.72 42.8032 1158.76 44.0217 1160.89C41.4019 1160.66 39.0448 1158.92 38.342 1156.71C37.6391 1154.5 38.6355 1151.96 40.743 1150.58C43.0992 1149.04 43.8658 1146.28 44.1017 1143.72C44.3375 1141.16 44.2293 1138.5 45.4525 1136.16C45.8323 1135.44 46.4855 1134.68 47.3995 1134.67C48.8587 1134.64 49.3822 1136.32 49.4406 1137.59C49.5279 1139.49 49.6151 1141.38 49.7024 1143.28C50.3179 1142.33 52.1255 1142.56 52.8645 1143.45C53.6035 1144.33 53.586 1145.52 53.538 1146.61C53.8819 1144.19 54.9958 1141.85 56.7238 1139.92C57.2662 1139.31 58.0817 1138.69 58.9218 1138.92C59.8098 1139.17 60.0285 1140.16 60.0592 1140.97C60.3255 1148.01 57.9079 1155.1 53.2772 1160.87C51.7683 1162.75 51.4273 1165.13 51.075 1167.4C49.5826 1177.03 47.1013 1186.54 43.6703 1195.79C41.6291 1201.29 39.1926 1206.78 35.0972 1211.33C32.9373 1213.73 30.3593 1215.82 27.7815 1217.88C18.8116 1225.06 9.69977 1232.1 0.451542 1239C-0.334807 1239 0.0262847 1237.89 0.620926 1237.44C11.0597 1229.58 21.865 1222.01 31.1842 1213.14C33.378 1211.05 35.4968 1208.88 37.1565 1206.45C38.7539 1204.11 39.9024 1201.56 40.9701 1199C45.6637 1187.74 48.9362 1176.04 50.7096 1164.16C50.8369 1163.31 50.9416 1162.39 50.4482 1161.64C56.6036 1155.87 59.6642 1147.69 58.5976 1139.86C54.1914 1141.63 56.1201 1148.03 52.6438 1150.97C52.5648 1149.08 52.4859 1147.19 52.407 1145.29C52.3842 1144.74 52.2875 1144.09 51.7245 1143.85C50.7954 1143.46 49.9928 1144.6 49.8987 1145.5C49.8045 1146.39 49.6239 1147.57 48.6034 1147.72C48.9378 1143.58 48.6555 1139.41 47.7657 1135.34C45.3412 1137.31 45.4298 1140.59 45.3691 1143.48C45.3084 1146.37 44.4478 1149.81 41.34 1150.81C42.413 1151.54 43.6803 1150.18 44.9172 1149.69C46.9867 1148.86 49.3576 1151.14 48.7789 1153.05C48.2002 1154.97 45.7324 1156.06 43.4577 1156.05C44.5649 1154.44 48.1143 1154.31 47.9894 1152.44C47.9277 1151.51 46.7787 1150.88 45.7153 1150.88C44.6518 1150.89 43.673 1151.36 42.7465 1151.81C41.1115 1152.61 39.2668 1153.7 39.2257 1155.34Z" fill="#00160A"/>
</svg>
