<svg width="118" height="32" viewBox="0 0 118 32" fill="none" xmlns="http://www.w3.org/2000/svg">
<path d="M0 1.617H8.67334C10.4878 1.617 12.0454 1.95388 13.3461 2.62763C14.6468 3.30138 15.647 4.29852 16.3466 5.61907C17.0461 6.93962 17.3959 8.56335 17.3959 10.4903C17.3959 12.013 17.1773 13.3335 16.74 14.452C16.3028 15.5704 15.6852 16.5069 14.8873 17.2615C14.1003 18.0161 13.1712 18.609 12.1001 19.0402L10.69 19.9295H3.03321L3.00042 15.5434H8.72254C9.65162 15.5434 10.4222 15.3413 11.0343 14.9371C11.6464 14.5328 12.1055 13.9736 12.4116 13.2594C12.7285 12.5452 12.887 11.73 12.887 10.8137C12.887 9.83001 12.734 8.98111 12.428 8.26692C12.1219 7.53928 11.6574 6.98007 11.0343 6.5893C10.4113 6.19852 9.62428 6.00314 8.67334 6.00314H4.50881V31.0464H0V1.617ZM13.4773 31.0464L7.95194 17.8679L12.7231 17.8476L18.314 30.7635V31.0464H13.4773ZM28.9876 31.4507C27.6432 31.4507 26.4354 31.1812 25.3642 30.6422C24.293 30.1032 23.3803 29.3553 22.6261 28.3986C21.8828 27.4284 21.309 26.3032 20.9046 25.0231C20.5111 23.7295 20.3143 22.3416 20.3143 20.8593V20.0508C20.3143 18.3665 20.5111 16.837 20.9046 15.4626C21.298 14.0747 21.8555 12.8821 22.5769 11.8849C23.2983 10.8878 24.1618 10.1197 25.1674 9.58072C26.1731 9.04172 27.2825 8.77223 28.4958 8.77223C29.7528 8.77223 30.8622 9.03501 31.8241 9.56052C32.786 10.0726 33.5895 10.8002 34.2342 11.7435C34.8792 12.6867 35.3655 13.8186 35.6935 15.1392C36.0212 16.4463 36.1854 17.8948 36.1854 19.4849V21.7284H22.2818V18.0498H31.9225V17.6456C31.9006 16.7966 31.7694 16.0218 31.529 15.3211C31.2885 14.6069 30.9169 14.041 30.4141 13.6233C29.9113 13.192 29.2609 12.9765 28.463 12.9765C27.8181 12.9765 27.2552 13.1516 26.7742 13.502C26.3042 13.8388 25.9107 14.324 25.5937 14.9573C25.2877 15.5771 25.0581 16.3183 24.9051 17.1806C24.7521 18.043 24.6756 18.9998 24.6756 20.0508V20.8593C24.6756 21.7756 24.7739 22.6245 24.9707 23.4061C25.1784 24.1877 25.479 24.8682 25.8725 25.4476C26.2769 26.0135 26.7578 26.4582 27.3153 26.7816C27.8837 27.0915 28.5285 27.2465 29.25 27.2465C30.1572 27.2465 30.977 27.0309 31.7093 26.5997C32.4526 26.155 33.0975 25.5015 33.6439 24.6391L35.8248 27.4284C35.4531 28.1022 34.9501 28.749 34.3161 29.3688C33.6932 29.9887 32.939 30.494 32.0536 30.8847C31.1683 31.262 30.1463 31.4507 28.9876 31.4507ZM43.6781 0V31.0464H39.3334V0H43.6781ZM57.5816 26.3975V16.3115C57.5816 15.5704 57.4779 14.9303 57.2704 14.3913C57.0625 13.8523 56.7455 13.4346 56.3194 13.1381C55.893 12.8417 55.352 12.6935 54.6962 12.6935C54.1167 12.6935 53.6086 12.8147 53.1714 13.0573C52.745 13.2998 52.4173 13.6435 52.1876 14.0881C51.9579 14.5193 51.8434 15.0179 51.8434 15.5839H47.4984C47.4984 14.681 47.6733 13.8254 48.0232 13.0169C48.3727 12.1949 48.87 11.4672 49.5151 10.8339C50.1709 10.1871 50.9526 9.68181 51.8595 9.31799C52.7779 8.95417 53.8054 8.77223 54.942 8.77223C56.2865 8.77223 57.4836 9.05521 58.5329 9.62117C59.593 10.1736 60.4237 11.0091 61.0248 12.1275C61.6369 13.2459 61.9431 14.6541 61.9431 16.352V25.8922C61.9431 26.9837 61.9979 27.9202 62.107 28.7018C62.2272 29.4699 62.4021 30.1369 62.6318 30.7028V31.0464H58.2213C58.0134 30.494 57.855 29.7933 57.7458 28.9443C57.6364 28.0819 57.5816 27.233 57.5816 26.3975ZM58.1884 17.7264L58.2213 20.8998H55.483C54.8054 20.8998 54.2097 20.9874 53.6959 21.1625C53.1822 21.3242 52.7614 21.5668 52.4334 21.8902C52.1057 22.2001 51.8595 22.5774 51.6957 23.0221C51.5318 23.4533 51.4499 23.9451 51.4499 24.4976C51.4499 25.0366 51.5483 25.5217 51.745 25.9529C51.9525 26.3841 52.2477 26.7277 52.6301 26.9837C53.0237 27.2263 53.4827 27.3476 54.0075 27.3476C54.7728 27.3476 55.4393 27.1589 56.0078 26.7816C56.5763 26.3908 57.0189 25.9192 57.3358 25.3667C57.6528 24.8143 57.8224 24.2887 57.8442 23.7901L59.0903 26.0944C58.9372 26.6468 58.7075 27.233 58.4016 27.8529C58.0954 28.4727 57.7022 29.0521 57.221 29.5911C56.7402 30.1302 56.1609 30.5748 55.483 30.9251C54.8054 31.2755 54.0186 31.4507 53.1221 31.4507C51.9744 31.4507 50.9469 31.1677 50.0399 30.6018C49.1326 30.0358 48.4167 29.261 47.8919 28.2773C47.3674 27.2936 47.1048 26.1752 47.1048 24.9221C47.1048 23.7632 47.2798 22.7391 47.6296 21.8497C47.9792 20.9604 48.4987 20.2125 49.187 19.6062C49.8757 18.9863 50.7283 18.5214 51.745 18.2115C52.7725 17.8881 53.9474 17.7264 55.2701 17.7264H58.1884ZM69.2391 9.1765L72.4035 16.1296L75.6169 9.1765H80.3226L75.1089 19.8891L80.5359 31.0464H75.8302L72.4364 23.7497L69.0262 31.0464H64.3205L69.731 19.8891L64.5498 9.1765H69.2391ZM87.4221 9.1765V31.0464H83.0771V9.1765H87.4221ZM82.7819 3.45634C82.7819 2.66132 83.0005 2.00104 83.4377 1.47551C83.886 0.949988 84.487 0.687227 85.2415 0.687227C85.9957 0.687227 86.5914 0.949988 87.0286 1.47551C87.4765 2.00104 87.7008 2.66132 87.7008 3.45634C87.7008 4.23788 87.4765 4.89143 87.0286 5.41694C86.5914 5.9425 85.9957 6.20523 85.2415 6.20523C84.487 6.20523 83.886 5.9425 83.4377 5.41694C83.0005 4.89143 82.7819 4.23788 82.7819 3.45634ZM99.9482 9.1765V13.0169H89.783V9.1765H99.9482ZM92.5046 3.79996H96.8496V24.7401C96.8496 25.3869 96.9205 25.8855 97.0628 26.2359C97.2049 26.5862 97.4181 26.822 97.7022 26.9433C97.9862 27.0646 98.325 27.1252 98.7186 27.1252C99.003 27.1252 99.2652 27.105 99.5057 27.0646C99.7461 27.0241 99.9482 26.9837 100.112 26.9433L100.129 30.9454C99.7679 31.0936 99.3582 31.2149 98.8989 31.3092C98.451 31.4035 97.9426 31.4507 97.3741 31.4507C96.4013 31.4507 95.5488 31.2486 94.8164 30.8443C94.0841 30.4266 93.5156 29.7596 93.1113 28.8433C92.707 27.9135 92.5046 26.6873 92.5046 25.1646V3.79996ZM110.802 31.4507C109.458 31.4507 108.25 31.1812 107.179 30.6422C106.108 30.1032 105.195 29.3553 104.441 28.3986C103.698 27.4284 103.124 26.3032 102.719 25.0231C102.326 23.7295 102.129 22.3416 102.129 20.8593V20.0508C102.129 18.3665 102.326 16.837 102.719 15.4626C103.113 14.0747 103.67 12.8821 104.392 11.8849C105.113 10.8878 105.977 10.1197 106.982 9.58072C107.988 9.04172 109.097 8.77223 110.311 8.77223C111.567 8.77223 112.677 9.03501 113.639 9.56052C114.601 10.0726 115.404 10.8002 116.049 11.7435C116.694 12.6867 117.18 13.8186 117.508 15.1392C117.836 16.4463 118 17.8948 118 19.4849V21.7284H104.097V18.0498H113.737V17.6456C113.715 16.7966 113.584 16.0218 113.344 15.3211C113.103 14.6069 112.732 14.041 112.229 13.6233C111.726 13.192 111.075 12.9765 110.278 12.9765C109.633 12.9765 109.07 13.1516 108.589 13.502C108.119 13.8388 107.725 14.324 107.408 14.9573C107.102 15.5771 106.873 16.3183 106.72 17.1806C106.567 18.043 106.49 18.9998 106.49 20.0508V20.8593C106.49 21.7756 106.589 22.6245 106.785 23.4061C106.993 24.1877 107.294 24.8682 107.687 25.4476C108.092 26.0135 108.573 26.4582 109.13 26.7816C109.698 27.0915 110.343 27.2465 111.065 27.2465C111.972 27.2465 112.792 27.0309 113.524 26.5997C114.267 26.155 114.912 25.5015 115.459 24.6391L117.639 27.4284C117.268 28.1022 116.765 28.749 116.131 29.3688C115.508 29.9887 114.754 30.494 113.868 30.8847C112.983 31.262 111.961 31.4507 110.802 31.4507Z" fill="black"/>
</svg>
