<svg width="16" height="16" viewBox="0 0 16 16" fill="none" xmlns="http://www.w3.org/2000/svg">
<path fill-rule="evenodd" clip-rule="evenodd" d="M14.9998 7C15.5521 7 15.9998 7.44771 15.9998 8C15.9998 8.55228 15.5521 9 14.9998 9H8.99981L8.99981 15C8.99981 15.5523 8.5521 16 7.99981 16C7.44753 16 6.99981 15.5523 6.99981 15V9H0.999814C0.447529 9 -0.000185905 8.55228 -0.000186242 8C-0.000186242 7.44772 0.447529 7 0.999814 7H6.99981L6.99981 1C6.99981 0.447715 7.44753 2.73828e-07 7.99981 6.11003e-07C8.5521 9.48178e-07 8.99981 0.447714 8.99981 1V7H14.9998Z" fill="black"/>
</svg>
