<svg width="8844" height="813" viewBox="0 0 8844 813" fill="none" xmlns="http://www.w3.org/2000/svg">
<path fill-rule="evenodd" clip-rule="evenodd" d="M8727.82 141.589C8727.6 141.712 8727.33 141.672 8727.17 141.493C8726.18 140.672 8725.07 140.01 8724.06 139.22C8723.53 138.792 8722.95 138.407 8722.34 138.068C8721.9 137.825 8721.57 137.444 8721.14 137.167L8721.03 137.094C8720.51 136.792 8720.09 136.356 8719.59 136.017C8719.17 135.731 8718.86 135.306 8718.44 135C8717.83 134.547 8717.24 134.065 8716.69 133.556C8716.29 133.271 8715.94 132.919 8715.68 132.517C8715.62 132.402 8715.51 132.378 8715.43 132.307C8715.08 132.013 8714.74 131.698 8714.43 131.365C8713.79 130.643 8713.08 129.979 8712.45 129.248C8712 128.718 8711.51 128.216 8711.04 127.7C8710.59 127.203 8710.15 126.697 8709.72 126.183C8708.71 124.983 8707.77 123.728 8706.91 122.424C8706.25 121.395 8705.65 120.331 8705.11 119.237C8704.64 118.368 8704.23 117.469 8703.89 116.548C8703.64 115.804 8703.27 115.09 8703.09 114.339C8702.93 113.629 8702.72 112.924 8702.54 112.224C8702.11 110.602 8701.76 108.969 8701.47 107.325C8701.3 106.358 8701.15 105.38 8700.97 104.419C8700.75 103.29 8700.67 102.147 8700.45 101.018C8700.33 100.357 8700.29 99.6577 8700.21 98.9795C8700.13 98.3229 8700.15 97.6597 8700.03 97.008C8699.93 96.3541 8699.87 95.6959 8699.84 95.0359C8699.79 94.4233 8699.59 93.7792 8699.8 93.1509C8699.47 92.711 8699.7 92.2015 8699.64 91.7299C8699.59 91.2583 8699.57 90.7783 8699.49 90.3196C8699.4 89.847 8699.33 89.3629 8699.26 88.8933C8699.12 87.9394 8698.88 87.0042 8698.74 86.0563C8698.65 85.4779 8698.39 84.9667 8698.25 84.4114C8697.98 83.3492 8697.6 82.3152 8697.12 81.3247C8696.91 80.9305 8696.77 80.5093 8696.7 80.0754C8696.66 79.745 8696.34 79.6044 8696.24 79.3033C8696.09 78.816 8695.85 78.3539 8695.66 77.8783C8695.62 77.7167 8695.5 77.5853 8695.33 77.5345L8695.47 77.1167C8695.4 76.9464 8695.32 77.1486 8695.23 77.0946C8695.13 76.9064 8694.97 76.7274 8695 76.4707C8695.03 76.2296 8694.74 76.1582 8694.68 75.9336C8694.54 75.4457 8693.98 75.1135 8694.1 74.523C8693.71 74.1877 8693.58 73.7018 8693.31 73.2935C8693.17 73.1026 8693.11 72.8714 8693.13 72.641L8693.14 72.5878C8693.18 72.3624 8692.72 72.3364 8692.9 72.0489C8692.29 71.4303 8692.26 70.5812 8692.02 69.841C8691.62 68.6533 8691.14 67.4873 8690.96 66.2281C8690.86 65.5982 8690.58 64.9687 8690.47 64.3286C8690.24 62.8898 8689.89 61.4642 8689.84 59.998C8689.82 59.3923 8689.65 58.7914 8689.63 58.1851L8689.62 57.4844C8689.59 56.4331 8689.57 55.3813 8689.63 54.3299C8689.6 54.0862 8689.65 53.8402 8689.76 53.6198C8689.92 53.3753 8689.65 53.1541 8689.67 52.885C8689.7 52.5655 8689.88 52.2899 8689.85 51.9404C8689.83 51.7478 8689.94 51.4612 8689.92 51.2378C8689.85 50.5115 8690.23 49.8376 8690.15 49.1131C8690.16 48.8412 8690.24 48.5761 8690.38 48.3372C8690.68 47.5137 8690.57 46.6026 8690.99 45.8195C8691.2 45.4321 8691.3 45.006 8691.3 44.5748L8691.29 44.4081C8691.29 44.2847 8691.3 44.1658 8691.37 44.0958C8691.69 43.8033 8691.68 43.3899 8691.82 43.0373C8691.96 42.6596 8691.96 42.2392 8692.16 41.8631C8692.4 41.5029 8692.57 41.1049 8692.66 40.6876C8692.73 39.965 8693.1 39.3681 8693.38 38.7328C8693.52 38.4153 8693.53 38.0119 8693.95 37.8302C8694.17 37.7377 8693.76 37.4183 8694.07 37.2819L8694.1 37.268C8694.33 37.1926 8694.35 37.0143 8694.33 36.7929C8694.32 36.5904 8694.69 36.5162 8694.63 36.301C8694.56 36.0859 8694.57 35.7897 8694.7 35.7732C8695.01 35.7303 8694.77 35.3723 8695.03 35.3558C8695.05 35.3472 8695.07 35.3273 8695.08 35.3018C8695.31 34.5722 8695.92 34.046 8696.18 33.3234C8696.36 32.8952 8696.62 32.5027 8696.95 32.1664C8697.23 31.8357 8697.48 31.4833 8697.7 31.1128C8698.1 30.4949 8698.68 30.0197 8699.07 29.4032C8699.18 29.2364 8699.65 29.378 8699.47 28.969C8699.77 28.9211 8699.74 28.6264 8699.89 28.4705C8700.04 28.3593 8700.2 28.2708 8700.38 28.2082C8700.56 27.832 8700.83 27.501 8701.16 27.242C8701.78 26.6407 8702.43 26.0771 8703.12 25.5547L8703.69 25.1259C8704.45 24.5546 8705.23 24.0014 8706.16 23.6747C8706.4 23.5908 8706.34 23.3463 8706.54 23.2525C8707.7 22.7009 8708.8 22.0383 8710.07 21.686C8710.6 21.5381 8711.1 21.2003 8711.64 21.045C8712.73 20.7328 8713.77 20.2829 8714.93 20.1192C8715.61 20.0226 8716.3 19.8186 8717 19.703C8718.44 19.4243 8719.91 19.3118 8721.37 19.3681L8722.28 19.4231C8723.08 19.4723 8723.88 19.5281 8724.68 19.6408C8725.05 19.6942 8725.39 19.8686 8725.75 19.8853C8726.09 19.9013 8726.42 19.9847 8726.73 20.1302C8726.97 20.2416 8727.23 20.0677 8727.48 20.2271C8727.67 20.389 8727.93 20.452 8728.18 20.3981L8728.22 20.3857C8728.37 20.3355 8728.6 20.5122 8728.79 20.5886C8729.07 20.6761 8729.35 20.7914 8729.61 20.9326C8729.8 21.0629 8730.13 20.8056 8730.22 21.1528C8730.53 20.998 8730.76 21.213 8731.01 21.3065L8731.04 21.3185C8731.29 21.3998 8731.54 21.5142 8731.78 21.614L8732.6 21.9468C8732.83 22.0785 8733.08 22.1745 8733.35 22.2312C8733.83 22.2583 8734.22 22.543 8734.69 22.6295C8735.2 22.7636 8735.7 22.9583 8736.17 23.2091C8736.59 23.4008 8737.07 23.3073 8737.49 23.5422C8737.89 23.7987 8738.34 23.974 8738.81 24.0571C8739.29 24.1025 8739.69 24.3976 8740.12 24.4227L8740.2 24.4241C8740.75 24.4132 8741.12 24.7881 8741.6 24.8384C8742.65 24.9482 8743.63 25.3716 8744.65 25.5002C8745.95 25.6624 8747.21 25.977 8748.52 26.08C8749.37 26.147 8750.23 26.1883 8751.08 26.2556C8751.94 26.2912 8752.79 26.2576 8753.64 26.1552C8754.7 26.0545 8755.75 25.8723 8756.78 25.6102C8757.82 25.3578 8758.81 24.9577 8759.84 24.6908C8760.32 24.5689 8760.75 24.3674 8761.23 24.2583C8761.75 24.141 8762.21 23.832 8762.73 23.7128C8764.02 23.4144 8765.2 22.7856 8766.53 22.6245C8768.07 21.9865 8769.74 21.8751 8771.33 21.447C8772.07 21.2472 8772.87 21.2326 8773.64 21.1414L8773.81 21.1206C8775.18 20.9385 8776.56 20.8888 8777.94 20.8267C8779.2 20.7796 8780.47 20.8119 8781.73 20.9236C8782.64 20.9967 8783.54 21.1118 8784.45 21.1686C8784.82 21.1919 8785.13 21.495 8785.52 21.3454C8786.28 21.6857 8787.16 21.5752 8787.91 21.942C8788.47 21.8816 8788.93 22.1497 8789.39 22.3676C8789.74 22.5346 8790.13 22.3757 8790.47 22.5928C8790.78 22.8195 8791.15 22.9644 8791.53 23.013C8792.19 23.0269 8792.7 23.343 8793.26 23.5584C8794.55 24.059 8795.84 24.581 8797.12 25.1243C8797.54 25.3026 8798.04 25.345 8798.36 25.7281C8798.63 26.0643 8799.18 25.9756 8799.45 26.3616C8799.54 26.5022 8799.74 26.2936 8799.9 26.4148C8800.21 26.6511 8800.68 26.6086 8800.94 26.9841C8801.14 27.2621 8801.62 27.1775 8801.84 27.5091L8801.86 27.557C8801.98 27.7915 8802.49 27.3705 8802.52 27.8546C8803.01 27.9741 8803.37 28.3005 8803.78 28.5511C8804.12 28.7581 8804.57 28.7483 8804.84 29.1072C8805.07 29.4131 8805.64 29.312 8805.81 29.7406C8806.4 29.8452 8806.76 30.3441 8807.31 30.5512C8807.72 30.7315 8808.1 30.9633 8808.45 31.2406C8809 31.6429 8809.57 32.0297 8810.14 32.4025C8810.35 32.5397 8810.55 32.6875 8810.74 32.8455C8810.84 32.9315 8810.84 33.0828 8811.01 33.1469C8812.04 33.5535 8812.83 34.3008 8813.64 34.9759C8814.12 35.321 8814.56 35.7017 8814.97 36.1142L8815.11 36.2528C8815.22 36.3894 8815.5 36.4935 8815.59 36.6716C8815.85 37.1675 8816.32 37.4674 8816.73 37.8081L8816.79 37.8653C8817.03 38.0544 8817.23 38.2745 8817.39 38.5188C8817.42 38.5654 8817.42 38.6548 8817.46 38.6713C8818.19 38.9791 8818.54 39.6566 8819.04 40.1747C8819.53 40.6757 8819.92 41.2633 8820.42 41.7508C8821.43 42.7337 8831.61 58.1367 8832.61 60.669L8832.9 61.3937C8833.19 62.1196 8833.47 62.8493 8833.72 63.5869L8833.93 64.2148C8834.14 64.8438 8834.35 65.4762 8834.51 66.1125L8834.73 66.962C8835.18 68.6617 8835.61 70.3666 8835.92 72.0967C8836.2 73.6404 8836.38 75.192 8836.56 76.7457C8836.68 77.7431 8836.75 78.7371 8836.78 79.7383C8836.83 81.3384 8836.84 82.9386 8836.81 84.539C8836.79 86.0456 8836.42 87.5174 8836.48 89.021C8836.1 89.8749 8836.33 90.8438 8835.92 91.6917C8836.02 92.1608 8835.77 92.5896 8835.68 93.0192C8835.58 93.4629 8835.6 93.9483 8835.32 94.3695C8835.2 94.5607 8835.35 94.841 8835.2 95.074C8835.04 95.2632 8834.98 95.509 8835.04 95.7443C8834.69 95.8303 8835.03 96.1085 8834.86 96.2849C8834.68 96.4765 8834.57 96.7204 8834.55 96.9782C8834.54 97.5607 8834.1 98.0267 8834.07 98.5491C8834.03 99.0834 8833.68 99.4819 8833.59 99.9515L8833.58 100.04C8833.51 100.665 8832.97 101.051 8832.84 101.632C8832.83 101.683 8832.7 101.708 8832.62 101.747C8832.62 101.882 8832.77 101.878 8832.86 101.998C8832.66 102.112 8832.48 102.251 8832.33 102.412C8832.18 102.646 8832.07 102.892 8831.98 103.148L8832.32 103.761C8832.1 104.042 8832.11 104.332 8831.85 104.537C8831.73 104.627 8831.73 104.958 8831.67 105.179C8831.6 105.469 8831.18 105.578 8831.23 105.825C8831.25 106.103 8831.18 106.381 8831.01 106.612C8830.01 108.89 8829 111.163 8827.98 113.433C8827.87 113.676 8827.86 114.004 8827.51 114.098C8827.8 114.51 8827.22 114.539 8827.16 114.817C8827.06 115.07 8826.91 115.301 8826.71 115.492C8826.42 115.862 8826.3 116.365 8826.09 116.803C8826 117.122 8825.81 117.409 8825.55 117.632C8825.3 117.811 8825.26 118.191 8825.04 118.466C8824.74 118.792 8824.49 119.155 8824.29 119.545C8824.2 119.833 8824.02 120.092 8823.78 120.291C8823.58 120.444 8823.65 120.847 8823.29 120.928C8823.09 121.443 8822.68 121.813 8822.35 122.236L8822.29 122.317C8821.47 123.411 8820.57 124.458 8819.62 125.451C8818.82 126.288 8818.04 127.137 8817.24 127.967C8816.98 128.234 8816.7 128.499 8816.42 128.747C8815.44 129.67 8814.41 130.54 8813.33 131.354C8812.35 132.05 8811.4 132.791 8810.39 133.448C8809.85 133.798 8809.37 134.26 8808.84 134.638C8807.59 135.532 8806.31 136.393 8804.99 137.191C8803.86 137.936 8802.66 138.575 8801.4 139.1C8801.06 139.226 8800.76 139.445 8800.43 139.592C8800.04 139.72 8799.65 139.875 8799.28 140.056C8798.84 140.334 8798.33 140.473 8797.89 140.725C8797.54 140.92 8797.09 140.7 8796.8 141.106C8796.58 141.402 8796.02 141.186 8795.76 141.529C8795.21 141.455 8794.87 141.911 8794.35 141.992L8794.28 142.001C8793.74 142.048 8793.23 142.371 8792.71 142.573C8792.19 142.805 8791.67 143.003 8791.13 143.168C8790.12 143.411 8789.21 143.885 8788.23 144.145C8787.29 144.392 8786.4 144.836 8785.42 144.896C8785.19 144.91 8785.19 145.105 8785.02 145.16C8784.85 145.217 8784.68 145.132 8784.52 145.204C8783.86 145.476 8783.17 145.696 8782.47 145.863C8781.48 146.131 8780.48 146.373 8779.5 146.648C8777.97 147.051 8776.42 147.377 8774.86 147.625C8773.84 147.802 8772.82 147.944 8771.8 148.097L8770.38 148.311C8769.67 148.417 8768.96 148.521 8768.25 148.612C8767.34 148.728 8766.43 148.786 8765.52 148.892C8764.81 148.975 8764.09 149.086 8763.38 149.198C8762.39 149.352 8761.39 149.473 8760.41 149.621C8759.01 149.823 8757.6 149.95 8756.19 150.003C8755.47 150.049 8754.76 150.052 8754.04 150.012C8753.64 149.979 8753.24 149.97 8752.84 149.984L8752.64 149.994C8751.71 150.054 8750.82 149.874 8749.92 149.8C8749.64 149.776 8749.38 149.696 8749.12 149.648L8749.01 149.629C8748.78 149.597 8748.57 149.549 8748.35 149.504L8748.19 149.471C8747.41 149.321 8746.66 149.042 8745.87 148.989L8745.72 148.981C8745.66 148.981 8745.6 148.968 8745.55 148.944C8744.78 148.525 8743.86 148.493 8743.06 148.141L8742.92 148.075C8742.17 147.704 8741.27 147.709 8740.54 147.285C8739.97 147.373 8739.55 146.968 8739.05 146.881C8737.76 146.657 8736.62 146.045 8735.43 145.578L8735.27 145.518C8734.03 145.047 8732.81 144.522 8731.57 144.028C8730.72 143.632 8729.91 143.171 8729.15 142.649C8728.99 142.503 8728.81 142.378 8728.61 142.277C8728.26 142.165 8727.97 141.915 8727.82 141.589Z" fill="#FFA500"/>
<path fill-rule="evenodd" clip-rule="evenodd" d="M8745.86 75.0507C8744.99 78.4671 8742.81 81.1308 8739.44 83.2862C8740.3 80.9042 8741.42 78.1169 8742.28 75.7348C8741.45 77.3599 8739.95 78.9538 8738.29 79.8202C8739.34 76.2349 8741.54 73.3842 8741.54 68.84C8741.54 67.2059 8739.68 65.9438 8739.75 65.2791C8739.82 64.6069 8740.2 64.0055 8740.49 63.3895C8742.13 59.9425 8746.45 76.4643 8745.86 75.0507Z" fill="white"/>
<path fill-rule="evenodd" clip-rule="evenodd" d="M8812.48 45.1978C8812.44 45.1939 8812.4 45.1893 8812.36 45.1841C8812.4 45.1307 8812.44 45.1343 8812.48 45.1978ZM8786.1 96.5193C8785.94 96.6548 8785.77 96.7898 8785.61 96.9243C8785.47 96.9243 8784.93 96.0462 8784.17 94.8254C8783.48 93.7009 8782.6 92.2855 8781.7 90.9978C8780.91 89.8728 8780.05 88.8587 8779.43 88.1314C8778.87 87.4702 8778.51 87.0461 8778.59 86.9913C8780.33 85.7963 8782.14 84.6864 8783.96 83.5774C8786.89 81.7858 8789.82 79.9962 8792.42 77.8533C8799.38 72.1301 8804.23 64.9411 8807.13 58.7723C8809.57 53.5686 8810.89 49.456 8811.63 47.1621C8811.99 46.0345 8812.21 45.3463 8812.36 45.1841C8810.83 44.9848 8809.48 43.8676 8809.07 42.4543C8808.65 41.0041 8809.25 39.335 8810.51 38.4324C8811.92 37.4233 8812.38 35.6085 8812.52 33.9315C8812.55 33.5858 8812.57 33.237 8812.59 32.8878C8812.67 31.5424 8812.75 30.1893 8813.33 28.9743C8813.56 28.4991 8813.95 28.0042 8814.5 27.9924C8815.38 27.9736 8815.69 29.076 8815.72 29.9092L8815.88 33.6444C8816.25 33.0185 8817.33 33.174 8817.78 33.7546C8818.22 34.3352 8818.21 35.1133 8818.18 35.8306C8818.39 34.2384 8819.05 32.7027 8820.09 31.4382C8820.41 31.0413 8820.9 30.6335 8821.41 30.7855C8821.94 30.9462 8822.07 31.597 8822.09 32.1289C8822.25 36.7439 8820.8 41.3967 8818.02 45.1811C8817.49 45.9114 8817.2 46.7573 8817.01 47.6354C8817.08 48.251 8817.11 48.9146 8817.03 49.4683C8816.14 55.7849 8814.65 62.0252 8812.59 68.0902C8811.37 71.6985 8809.91 75.3066 8807.45 78.2907C8806.16 79.8645 8804.61 81.2322 8803.07 82.5852C8798.33 86.7316 8792.58 91.4254 8787.49 95.58C8786.8 96.1427 8786.12 96.6956 8785.46 97.2358C8785.43 97.2358 8785.66 96.9863 8786.1 96.5193Z" fill="white"/>
<path d="M8734.66 117.366C8735.06 118.453 8736.07 119.842 8736.07 119.842C8736.07 119.842 8729.06 129.286 8726.39 134.681C8723.91 139.695 8721.4 151.306 8713.71 144.335C8717.37 134.456 8721.06 124.525 8726.39 115.359C8728.81 111.191 8730.93 109.711 8730.93 109.711C8730.93 109.711 8733.26 113.565 8734.66 117.366Z" fill="white"/>
<path fill-rule="evenodd" clip-rule="evenodd" d="M8742.34 61.3364C8741.83 61.7603 8742.27 62.5889 8742.84 62.9504C8743.41 63.312 8744.15 63.5859 8744.34 64.2101C8743.48 64.2607 8742.69 63.5617 8741.83 63.6541C8740.88 63.7563 8740.31 64.8407 8740.5 65.7385C8740.68 66.6362 8741.38 67.3498 8742.11 67.9469C8743.25 68.8774 8744.51 69.6593 8745.87 70.2635C8746.37 70.4847 8746.92 71.1535 8746.43 71.3873C8745.97 71.1388 8745.51 70.8904 8745.06 70.642C8745.82 72.8976 8746.61 75.199 8748.09 77.0989C8749.58 78.9988 8751.92 80.4585 8754.4 80.3218C8754.88 80.2955 8755.58 80.3937 8755.53 80.8483C8755.21 80.9195 8754.89 80.9907 8754.56 81.0619C8755.56 81.8685 8756.98 82.0658 8758.27 81.8581C8759.56 81.6504 8760.75 81.084 8761.9 80.5011C8764.22 79.3319 8766.53 78.0283 8768.21 76.1148C8769.37 74.8017 8770.18 73.2477 8770.85 71.6585C8772.98 66.6297 8773.74 61.0861 8773.05 55.7062C8773.01 55.4359 8772.84 55.0781 8772.57 55.162C8765.98 57.1968 8758.55 56.6367 8752.38 53.6397C8751.04 52.9913 8749.71 52.188 8748.94 50.9637C8751.8 52.641 8754.91 53.9195 8758.16 54.7457C8761.33 55.5557 8764.67 55.9304 8767.93 55.4641C8771.18 54.9978 8774.35 53.645 8776.61 51.3725C8779.7 48.275 8780.83 43.7349 8780.39 39.4857C8779.95 35.2366 8778.09 31.2304 8775.85 27.5327C8775.2 30.0571 8772.92 31.9851 8770.37 32.9056C8767.82 33.8261 8765.02 33.8813 8762.29 33.7542C8759.57 33.6271 8756.83 33.3295 8754.12 33.5865C8752.44 33.7456 8750.67 34.1775 8749.54 35.3728C8747.82 37.1924 8748.2 39.9926 8748.68 42.3973C8747.93 42.0169 8747.51 41.1117 8747.73 40.3243C8744.71 40.8547 8742.51 43.5325 8741.74 46.3623C8740.97 49.1921 8741.34 52.1766 8741.72 55.0779C8741.88 56.3094 8742.04 57.5409 8742.2 58.7723C8742.3 59.5243 8742.43 60.3302 8742.97 60.8832C8744.68 62.6238 8745.88 64.8179 8746.39 67.1521C8748.24 64.1477 8749.52 60.8317 8750.17 57.4058C8750.31 56.6343 8750.44 55.8276 8750.9 55.1815C8751.37 54.5354 8752.3 54.1134 8753.04 54.4641C8750.1 58.7295 8749.97 64.5118 8746.34 68.2634C8745.75 66.8386 8745.15 65.4137 8744.56 63.9889C8744.11 62.9018 8743.52 61.6892 8742.34 61.3364Z" fill="white"/>
<path fill-rule="evenodd" clip-rule="evenodd" d="M8785.56 103.684C8783.23 105.269 8780.83 106.76 8778.37 108.151C8777.83 111.74 8776.57 118.637 8775.6 124.45C8775.16 127.094 8775.16 129.343 8774.79 131.192C8774.02 134.952 8770.8 136.951 8766.94 136.769C8744.31 135.704 8743.97 147.143 8743.1 139.754C8742.24 132.364 8741.84 124.925 8741.93 117.49C8740.18 118.717 8738.43 119.944 8736.69 121.172C8736.13 120.368 8731.21 112.813 8731.46 110.06C8731.74 107.058 8735.23 102.7 8739.22 99.2683C8741.7 97.1306 8744.6 95.5736 8746.35 94.2526C8747.05 93.7186 8750.72 90.555 8751.57 87.4654C8752.46 84.2321 8750.55 81.0704 8752.22 80.6471C8753.53 80.313 8754.38 81.304 8755.85 81.9348C8756.99 82.4198 8758.86 81.558 8759.3 82.2435C8759.74 82.929 8759.16 85.638 8760.27 86.6793C8762.33 88.6091 8766.59 88.9323 8766.94 88.8973C8771.55 88.4311 8776.37 86.4315 8777.76 86.9289C8782.54 88.6385 8786.17 97.2237 8786.95 100.169C8787.12 100.841 8787.27 101.567 8787.01 102.213C8786.75 102.849 8786.14 103.287 8785.56 103.684Z" fill="white"/>
<path fill-rule="evenodd" clip-rule="evenodd" d="M8779.98 88.4224C8779.83 88.2462 8779.69 88.0909 8779.56 87.9542C8778.93 87.2931 8778.48 87.0649 8778.59 86.9913C8783.14 83.8659 8788.2 81.3228 8792.42 77.8533C8799.38 72.1301 8804.23 64.9411 8807.13 58.7723C8809.35 54.0515 8806.19 64.8818 8798.83 75.3019C8792.78 83.8718 8780.22 88.7264 8779.98 88.4224Z" fill="#E7EAEE"/>
<path fill-rule="evenodd" clip-rule="evenodd" d="M8785.56 103.684C8786.14 103.287 8786.75 102.849 8787.01 102.213C8787.27 101.567 8787.12 100.841 8786.95 100.169C8785.61 95.118 8782.66 90.4647 8778.59 86.9913C8795.54 78.9793 8808.36 63.4659 8812.57 45.899C8808.9 55.8923 8803.98 65.6358 8796.59 73.5362C8789.19 81.4366 8779.08 87.3858 8768.03 88.5043C8765.57 88.7532 8762.83 88.679 8760.98 87.1123C8759.14 85.5456 8759.19 82.0363 8761.54 81.3027C8765.96 79.923 8769.49 76.5089 8771.49 72.5081C8773.49 68.5074 8774.06 63.9659 8773.8 59.5435C8773.68 57.53 8773.56 55.1366 8775.25 53.9205C8779.53 50.8435 8781.57 45.4892 8781.33 40.3918C8781.09 35.2944 8778.8 30.4472 8775.76 26.2427C8774.75 29.2242 8772.13 31.6682 8768.99 32.5869C8766.35 33.357 8763.58 33.0847 8760.8 32.8114C8759.45 32.6781 8758.09 32.5446 8756.74 32.5315C8752.64 32.4918 8747.76 34.4169 8747.31 38.3026C8747.16 39.5746 8745.95 40.3092 8744.76 41.0349C8744.37 41.2708 8743.98 41.5058 8743.63 41.7581C8740.48 44.0498 8740.19 48.4534 8740.69 52.2062C8740.76 52.7475 8740.84 53.2935 8740.92 53.842C8741.4 57.0969 8741.89 60.4396 8740.49 63.3895C8740.43 63.5202 8740.36 63.6503 8740.3 63.7805C8740.05 64.264 8739.81 64.7496 8739.75 65.2791C8739.58 66.7992 8740.86 67.8174 8742.17 68.865C8742.86 69.4211 8743.57 69.9855 8744.08 70.6376C8745.33 72.2488 8745.3 74.5124 8744.54 76.3806C8743.78 78.2488 8742.39 79.812 8741.02 81.3367C8742.48 78.597 8743.23 75.5185 8743.19 72.4472L8739.3 78.6623C8740.66 75.5521 8741.43 72.2076 8741.56 68.84L8738.41 79.5957C8740.08 78.7293 8741.45 77.3599 8742.28 75.7348L8739.69 82.881C8742.62 81.0626 8744.85 78.2379 8745.86 75.0507C8746.45 76.4643 8747.44 77.7208 8748.71 78.644C8753.11 81.8463 8752.78 89.2955 8748.1 92.1252C8738.82 97.7465 8731.72 106.194 8726.39 115.359C8721.06 124.525 8717.37 134.456 8713.71 144.335C8718.99 132.713 8724.72 121.278 8730.88 110.06C8732.32 113.976 8734.27 117.719 8736.69 121.172L8741.93 117.49C8741.84 124.924 8742.24 132.364 8743.1 139.754C8744.13 139.858 8744.38 138.418 8744.22 137.443C8742.66 128.106 8742.43 118.569 8743.52 109.173C8742.49 109.803 8742.47 111.115 8742.45 112.344C8742.45 112.576 8742.44 112.806 8742.43 113.027C8742.29 116.072 8739.91 118.902 8736.81 119.693C8735.22 117.771 8733.6 115.808 8732.69 113.516C8731.79 111.224 8731.69 108.507 8733.06 106.437C8736.75 100.875 8742.07 96.3016 8748.25 93.3661C8751 95.9118 8754.26 97.9551 8757.81 99.3526C8758.93 99.7968 8760.23 100.173 8761.34 99.6928C8762.11 99.3607 8762.63 98.6773 8763.09 98.0033C8764.82 95.4503 8766.09 92.6092 8766.8 89.6477C8770.12 89.1984 8773.41 88.5285 8776.64 87.6447C8777.94 87.2871 8779.19 88.2958 8780.08 89.2786C8782.81 92.327 8784.83 95.9508 8785.96 99.8143C8786.19 100.602 8786.37 101.467 8786.03 102.215C8785.75 102.816 8785.17 103.235 8784.61 103.614C8782.5 105.036 8780.27 106.294 8777.95 107.372C8778.2 104.973 8777.55 102.501 8776.16 100.488C8778.36 106.098 8777.2 112.049 8776.02 118.06C8775.13 122.652 8774.23 127.28 8774.81 131.82L8778.37 108.151C8780.83 106.76 8783.23 105.269 8785.56 103.684ZM8742.34 61.3364C8743.52 61.6892 8744.11 62.9017 8744.56 63.9889L8746.34 68.2634C8748.37 66.1707 8749.3 63.4462 8750.24 60.7055C8750.99 58.5329 8751.74 56.3502 8753.04 54.464C8752.3 54.1134 8751.37 54.5354 8750.9 55.1815C8750.47 55.7843 8750.33 56.5269 8750.2 57.2503C8750.19 57.3023 8750.18 57.3541 8750.17 57.4058C8749.52 60.8317 8748.24 64.1477 8746.39 67.1521C8745.88 64.8178 8744.68 62.6238 8742.97 60.8832C8742.43 60.3302 8742.3 59.5242 8742.2 58.7723L8741.72 55.0779C8741.34 52.1765 8740.97 49.1921 8741.74 46.3623C8742.51 43.5324 8744.71 40.8547 8747.73 40.3243C8747.51 41.1117 8747.93 42.0168 8748.68 42.3973C8748.2 39.9926 8747.82 37.1924 8749.54 35.3728C8750.67 34.1775 8752.44 33.7455 8754.12 33.5864C8756.2 33.3899 8758.28 33.5179 8760.37 33.6458C8761.01 33.6851 8761.65 33.7244 8762.29 33.7542C8765.02 33.8813 8767.82 33.8261 8770.37 32.9056C8772.92 31.985 8775.2 30.057 8775.85 27.5327C8778.09 31.2304 8779.95 35.2366 8780.39 39.4857C8780.83 43.7349 8779.7 48.275 8776.61 51.3724C8774.35 53.645 8771.18 54.9978 8767.93 55.4641C8764.67 55.9304 8761.33 55.5557 8758.16 54.7457C8754.91 53.9194 8751.8 52.6409 8748.94 50.9637C8749.71 52.188 8751.04 52.9912 8752.38 53.6397C8758.55 56.6366 8765.98 57.1968 8772.57 55.162C8772.84 55.078 8773.01 55.4359 8773.05 55.7062C8773.74 61.0861 8772.98 66.6297 8770.85 71.6585C8770.18 73.2477 8769.37 74.8016 8768.21 76.1148C8766.53 78.0283 8764.22 79.3319 8761.9 80.5011C8760.75 81.084 8759.56 81.6503 8758.27 81.8581C8756.98 82.0658 8755.56 81.8685 8754.56 81.0619L8755.53 80.8483C8755.58 80.3936 8754.88 80.2955 8754.4 80.3218C8751.92 80.4585 8749.58 78.9988 8748.09 77.0989C8746.61 75.199 8745.82 72.8976 8745.06 70.6419L8746.43 71.3872C8746.92 71.1534 8746.37 70.4847 8745.87 70.2635C8744.51 69.6592 8743.25 68.8774 8742.11 67.9469C8741.38 67.3498 8740.68 66.6362 8740.5 65.7384C8740.31 64.8407 8740.88 63.7562 8741.83 63.6541C8742.27 63.6067 8742.69 63.7673 8743.12 63.9283C8743.52 64.0813 8743.92 64.2347 8744.34 64.2101C8744.19 63.7222 8743.71 63.4483 8743.23 63.1793C8743.1 63.1041 8742.97 63.0294 8742.84 62.9504C8742.27 62.5888 8741.83 61.7603 8742.34 61.3364ZM8754.12 81.6472C8755.36 82.5398 8757.03 82.8753 8758.55 82.5386C8757.84 84.2591 8758.73 86.2936 8760.22 87.4758C8761.71 88.6581 8763.68 89.146 8765.59 89.4376C8765.54 92.6792 8764.31 95.8921 8762.17 98.4122C8761.54 99.1529 8760.32 98.9919 8759.37 98.7084C8755.58 97.5861 8752.09 95.609 8749.24 92.9859C8749.48 92.6457 8749.88 92.4542 8750.27 92.2619C8750.63 92.085 8751 91.9075 8751.25 91.6131C8751.48 91.3463 8751.59 91.0089 8751.69 90.6782C8752.67 87.4325 8752.85 83.9701 8752.22 80.6471C8752.82 80.656 8753.31 81.0314 8753.78 81.3983C8753.9 81.4833 8754.01 81.5678 8754.12 81.6472ZM8812.05 39.2409C8811.07 39.7672 8809.97 40.4825 8809.94 41.5545C8809.92 42.4699 8810.66 43.0836 8811.42 43.7163C8811.96 44.163 8812.51 44.6192 8812.82 45.1978C8811.25 45.0431 8809.83 43.9046 8809.41 42.4543C8808.99 41.0041 8809.59 39.335 8810.85 38.4324C8812.26 37.4233 8812.72 35.6085 8812.86 33.9315C8812.89 33.5858 8812.91 33.2371 8812.93 32.8878C8813.01 31.5424 8813.09 30.1893 8813.67 28.9743C8813.9 28.4991 8814.29 28.0042 8814.84 27.9924C8815.72 27.9736 8816.03 29.076 8816.06 29.9092L8816.22 33.6444C8816.59 33.0186 8817.67 33.174 8818.12 33.7546C8818.56 34.3352 8818.55 35.1133 8818.52 35.8306C8818.73 34.2384 8819.39 32.7027 8820.43 31.4382C8820.75 31.0413 8821.24 30.6335 8821.75 30.7855C8822.28 30.9462 8822.41 31.597 8822.43 32.1289C8822.59 36.744 8821.14 41.3967 8818.36 45.1811C8817.48 46.387 8817.26 47.9083 8817.06 49.3693L8817.04 49.4683C8816.15 55.7849 8814.66 62.0252 8812.61 68.0902C8811.38 71.6985 8809.92 75.3066 8807.47 78.2907C8806.17 79.8645 8804.63 81.2322 8803.08 82.5852C8797.71 87.2932 8792.25 91.913 8786.7 96.4419C8786.23 96.4418 8786.45 95.7133 8786.8 95.4193C8788.01 94.427 8789.22 93.4421 8790.43 92.4569C8795.52 88.3183 8800.61 84.1764 8805.12 79.4768C8806.44 78.1071 8807.71 76.6833 8808.7 75.0871C8809.66 73.5506 8810.35 71.8771 8810.99 70.1973C8813.8 62.8128 8815.76 55.1337 8816.82 47.3429C8816.9 46.7837 8816.96 46.178 8816.67 45.6895C8820.36 41.9008 8822.19 36.5347 8821.55 31.4013C8820.12 32.0319 8819.8 33.5621 8819.48 35.1376C8819.21 36.458 8818.93 37.8103 8817.98 38.6916L8817.84 34.962C8817.83 34.604 8817.77 34.177 8817.43 34.0193C8816.88 33.7591 8816.4 34.5079 8816.34 35.0966C8816.28 35.6854 8816.17 36.4595 8815.56 36.557C8815.76 33.8432 8815.59 31.1049 8815.06 28.4323C8813.69 29.6483 8813.66 31.6329 8813.63 33.4415C8813.63 33.5531 8813.63 33.664 8813.62 33.7741C8813.59 35.6673 8813.07 37.9268 8811.21 38.5845C8811.66 38.9176 8812.16 38.5827 8812.68 38.2406C8812.9 38.0928 8813.13 37.9437 8813.35 37.8465C8814.59 37.3072 8816.01 38.7978 8815.67 40.0547C8815.32 41.3115 8813.84 42.0265 8812.48 42.0211C8812.76 41.5669 8813.32 41.2919 8813.86 41.0275C8814.57 40.6789 8815.24 40.3489 8815.19 39.6514C8815.16 39.0448 8814.47 38.6281 8813.83 38.6321C8813.19 38.6361 8812.61 38.9427 8812.05 39.2409ZM8753.16 61.0446C8753.18 60.8215 8753.52 60.7887 8753.76 60.7979C8754.52 60.8266 8755.25 60.6158 8755.97 60.396L8756.07 60.3648C8756.75 60.1545 8757.44 59.9413 8758.16 59.922C8758.91 59.9018 8759.72 60.1326 8760.17 60.6838C8760.23 60.7565 8760.28 60.8423 8760.27 60.9323C8760.25 61.086 8760.03 61.1598 8759.87 61.121C8759.74 61.0908 8759.63 61.0165 8759.53 60.9427C8759.5 60.9217 8759.47 60.9007 8759.44 60.8808C8758.6 60.3379 8757.45 60.5722 8756.49 60.8997C8756.42 60.9245 8756.34 60.9497 8756.27 60.9751C8755.37 61.2848 8754.42 61.6126 8753.52 61.3639C8753.34 61.3166 8753.15 61.2085 8753.16 61.0446ZM8761.69 71.7179C8762.27 71.7439 8762.89 71.757 8763.35 71.4384C8764.01 70.994 8764.09 70.1016 8764.01 69.3379C8763.97 68.8855 8763.9 68.4363 8763.82 67.9873C8763.72 67.3699 8763.62 66.7529 8763.6 66.1288C8763.56 65.0506 8763.82 63.8976 8764.63 63.145C8764.67 62.8833 8764.31 62.6959 8764.05 62.7872C8763.79 62.8785 8763.63 63.131 8763.52 63.3729C8762.75 65.0254 8762.94 66.8964 8763.13 68.721C8763.15 68.9985 8763.18 69.2748 8763.21 69.5492C8763.25 69.9926 8763.24 70.5149 8762.87 70.7849C8762.6 70.986 8762.24 70.9639 8761.88 70.9421C8761.77 70.9349 8761.65 70.9278 8761.54 70.9285C8761.3 70.9301 8761.01 71.0153 8760.97 71.239C8760.9 71.5553 8761.36 71.7027 8761.69 71.7179ZM8760.24 62.9857C8760.51 62.9491 8760.74 63.2293 8760.73 63.4936C8760.72 63.7579 8760.55 63.9895 8760.35 64.176C8759.66 64.8518 8758.64 65.1639 8757.66 65.1693C8756.67 65.1746 8755.71 64.8982 8754.8 64.5315C8754.6 64.4522 8754.4 64.3647 8754.25 64.2136C8754.11 64.0625 8754.03 63.8311 8754.12 63.643C8754.21 63.4549 8754.5 63.3708 8754.65 63.5199C8755.32 64.1974 8756.36 64.3725 8757.33 64.3883C8758.2 64.4025 8759.2 64.2499 8759.68 63.5404C8759.71 63.5005 8759.74 63.4584 8759.77 63.4158C8759.89 63.2203 8760.02 63.016 8760.24 62.9857ZM8771.92 64.018C8770.82 64.9206 8769.14 65.2021 8767.75 64.7123C8767.37 64.577 8767 64.3744 8766.79 64.0565C8766.71 63.9323 8766.66 63.7801 8766.72 63.6463C8766.81 63.43 8767.14 63.373 8767.39 63.4567C8767.57 63.5199 8767.72 63.6371 8767.87 63.754C8767.91 63.7921 8767.96 63.8301 8768.01 63.8663C8768.88 64.5044 8770.25 64.5228 8771.14 63.9082C8771.16 63.8952 8771.18 63.8818 8771.2 63.8684C8771.34 63.7679 8771.49 63.6631 8771.67 63.6604C8771.87 63.6574 8772.06 63.8952 8771.92 64.018ZM8735.38 119.842C8734.97 120.076 8734.67 120.457 8734.39 120.83C8731.52 124.658 8728.98 128.713 8726.82 132.941C8724.63 137.212 8722.82 141.649 8721.02 146.08C8720.87 146.456 8720.72 146.891 8720.92 147.245C8721.2 147.734 8722.01 147.71 8722.45 147.341C8722.89 146.971 8723.05 146.398 8723.2 145.859C8725.72 136.885 8729.91 128.357 8735.3 120.609C8735.46 120.373 8735.61 120.022 8735.38 119.842ZM8759.08 77.1532C8759.1 77.5964 8758.55 77.8497 8758.1 77.8532C8757.6 77.8571 8757.07 77.6835 8756.8 77.2785C8756.53 76.8735 8756.66 76.2246 8757.13 76.059L8753.91 74.8786C8753.64 74.7794 8753.36 74.6784 8753.07 74.7245C8753.01 74.7352 8752.94 74.7537 8752.88 74.7721C8752.77 74.8032 8752.66 74.8341 8752.55 74.8274C8752.37 74.8167 8752.18 74.6382 8752.26 74.4828C8752.29 74.4245 8752.35 74.387 8752.41 74.3522L8753.59 73.6324C8753.72 73.5507 8753.87 73.4658 8754.03 73.4814C8754.18 73.497 8754.33 73.6697 8754.25 73.8033C8754.02 74.199 8754.6 74.5671 8755.05 74.6815C8756.57 75.0658 8758.1 75.4521 8759.67 75.536C8761.24 75.62 8762.87 75.3818 8764.21 74.5924C8764.62 74.3499 8765.14 74.0512 8765.55 74.2992C8765.39 74.7394 8764.92 74.9834 8764.47 75.2219C8763.96 75.489 8763.47 75.7491 8763.43 76.2699C8763.39 76.8075 8762.9 77.2777 8762.35 77.3029C8761.79 77.3281 8761.26 76.9049 8761.17 76.3732C8761.15 76.2891 8761.05 76.2561 8760.96 76.2416C8760.56 76.1745 8760.15 76.1396 8759.77 76.2756C8759.39 76.4116 8759.06 76.7607 8759.08 77.1532ZM8758.5 76.1996C8758.32 75.9878 8757.95 76.0195 8757.76 76.2129C8757.56 76.4063 8757.51 76.7042 8757.54 76.9755C8757.77 77.1034 8758.09 77.0759 8758.29 76.9092C8758.5 76.7425 8758.59 76.4476 8758.5 76.1996ZM8762.71 76.3592C8762.74 76.2518 8762.81 76.1564 8762.91 76.0994C8762.79 75.8937 8762.47 75.9744 8762.25 76.081C8762.13 76.1375 8762 76.2132 8761.99 76.3381C8761.97 76.4915 8762.15 76.6095 8762.31 76.591C8762.47 76.5725 8762.6 76.4654 8762.72 76.363L8762.71 76.3592ZM8769.35 61.69C8769.5 61.7268 8769.65 61.7636 8769.8 61.7906C8770.59 61.9303 8771.45 61.7903 8772.12 61.4103C8772.3 61.3092 8772.13 61.0452 8771.92 61.0255C8771.76 61.0104 8771.6 61.0749 8771.45 61.1388C8771.4 61.1575 8771.36 61.1762 8771.32 61.1928C8770.74 61.4065 8770.1 61.2835 8769.46 61.1611C8768.79 61.0334 8768.13 60.9063 8767.55 61.1628C8767.34 61.2554 8767.14 61.4231 8767.15 61.624C8767.16 61.8248 8767.5 61.9799 8767.65 61.8277C8767.9 61.5833 8768.32 61.5212 8768.7 61.5611C8768.92 61.5846 8769.13 61.6373 8769.35 61.69Z" fill="#00160A"/>
<path fill-rule="evenodd" clip-rule="evenodd" d="M8758.55 82.5386C8758.1 82.6374 8757.64 82.6783 8757.19 82.6643C8756.09 82.6304 8754.84 86.2647 8757.19 90.41C8759.49 94.4834 8763.84 96.1129 8764.41 94.8236C8765.15 93.1193 8765.56 91.2831 8765.59 89.4376C8763.68 89.146 8761.71 88.6581 8760.22 87.4758C8758.73 86.2936 8757.84 84.2591 8758.55 82.5386Z" fill="#E7EAEE"/>
<ellipse cx="8750.19" cy="71.9487" rx="1.37614" ry="1.31213" fill="#FFB61D"/>
<ellipse cx="8767.62" cy="72.3861" rx="1.37614" ry="1.31213" fill="#FFB61D"/>
<path fill-rule="evenodd" clip-rule="evenodd" d="M8752.74 119.454C8753.23 118.894 8754.24 119.176 8755 119.38C8757.03 119.924 8759.49 119.352 8760.98 117.987C8762.49 116.613 8765.29 118.289 8767.27 117.451C8768.47 116.946 8769.43 115.546 8770.64 115.919C8772.13 116.376 8773.96 116.036 8775.16 115.098L8775.16 114.816L8775.16 114.194C8773.96 115.23 8772.03 115.621 8770.48 115.144C8769.27 114.772 8768.31 116.172 8767.11 116.677C8765.13 117.514 8762.33 115.839 8760.82 117.212C8759.36 118.55 8756.97 119.126 8754.96 118.637L8754.56 118.532C8753.85 118.347 8753.01 118.185 8752.58 118.68C8751.22 120.24 8748.5 120.869 8746.49 120.089L8746.74 120.899L8746.86 120.94C8748.85 121.598 8751.43 120.96 8752.74 119.454ZM8750.86 110.869C8751.38 110.341 8752.37 110.636 8753.11 110.849C8755.11 111.419 8757.58 110.926 8759.14 109.649C8760.72 108.364 8763.41 110.039 8765.43 109.28C8766.65 108.822 8767.68 107.499 8768.87 107.885C8770.32 108.358 8775.66 105.64 8775.66 105.64C8774.3 105.592 8770.36 107.616 8768.86 107.17L8768.75 107.137C8767.56 106.751 8766.53 108.074 8765.32 108.532C8763.3 109.291 8760.6 107.616 8759.03 108.901C8757.5 110.153 8755.09 110.651 8753.12 110.134L8752.73 110.024C8752.02 109.83 8751.2 109.655 8750.75 110.121C8749.3 111.588 8745.33 110.913 8744.6 111.334C8744.6 111.334 8749.47 112.285 8750.86 110.869Z" fill="#FFB61D"/>
<path fill-rule="evenodd" clip-rule="evenodd" d="M8752.33 135.717C8752.82 135.157 8753.82 135.439 8754.59 135.643C8756.62 136.187 8759.07 135.615 8760.57 134.25C8762.08 132.876 8764.88 134.552 8766.86 133.714C8768.05 133.209 8769.01 131.81 8770.23 132.182C8771.71 132.639 8773.54 132.299 8774.75 131.361L8774.74 131.079L8774.74 130.457C8773.55 131.493 8771.62 131.884 8770.07 131.407C8768.85 131.035 8767.89 132.435 8766.7 132.94C8764.72 133.777 8761.92 132.102 8760.41 133.475C8758.94 134.813 8756.56 135.389 8754.55 134.9L8754.15 134.795C8753.43 134.61 8752.6 134.448 8752.17 134.943C8750.8 136.503 8748.09 137.132 8746.07 136.352L8746.33 137.162L8746.45 137.204C8748.43 137.861 8751.01 137.223 8752.33 135.717ZM8750.45 127.132C8750.97 126.604 8751.95 126.899 8752.7 127.112C8754.69 127.682 8757.17 127.189 8758.73 125.912C8760.31 124.627 8763 126.302 8765.02 125.543C8766.24 125.085 8767.27 123.762 8768.45 124.148C8769.91 124.621 8775.24 121.903 8775.24 121.903C8773.89 121.855 8769.95 123.879 8768.44 123.433L8768.34 123.4C8767.15 123.014 8766.12 124.337 8764.9 124.795C8762.89 125.554 8760.19 123.879 8758.61 125.164C8757.08 126.416 8754.67 126.914 8752.71 126.397L8752.31 126.287C8751.61 126.093 8750.79 125.918 8750.33 126.384C8748.89 127.852 8744.92 127.176 8744.19 127.597C8744.19 127.597 8749.06 128.548 8750.45 127.132Z" fill="#FFB61D"/>
<path fill-rule="evenodd" clip-rule="evenodd" d="M8748.16 43.1525C8749.49 43.9313 8754.35 35.3728 8761.59 35.3728C8776.93 35.3728 8778.09 31.2304 8775.85 27.5327C8775.2 30.0571 8772.92 31.9851 8770.37 32.9056C8767.82 33.8261 8765.02 33.8813 8762.29 33.7542C8759.57 33.6271 8756.83 33.3295 8754.12 33.5865C8752.44 33.7456 8750.67 34.1775 8749.54 35.3728C8747.82 37.1924 8748.2 39.9926 8748.68 42.3973C8747.92 42.0169 8747.51 41.1117 8747.73 40.3243C8744.71 40.8547 8742.51 43.5325 8741.74 46.3623C8740.96 49.1921 8741.34 52.1766 8741.72 55.0779C8741.88 56.3094 8742.04 57.5409 8742.2 58.7723C8742.2 58.7723 8742.89 48.8517 8743.82 46.3623C8745.09 42.9733 8748.46 43.6231 8748.16 43.1525Z" fill="#E7EAEE"/>
<path fill-rule="evenodd" clip-rule="evenodd" d="M23.5107 757.98C23.4748 759.542 25.6549 760.225 26.3853 761.623C24.815 761.469 23.4022 760.33 22.981 758.88C22.5597 757.429 23.1569 755.76 24.4201 754.858C25.8323 753.849 26.2918 752.034 26.4332 750.357C26.5745 748.68 26.5096 746.93 27.2428 745.4C27.4705 744.925 27.862 744.43 28.4098 744.418C29.2844 744.399 29.5981 745.501 29.6332 746.335C29.6855 747.58 29.7378 748.825 29.7901 750.07C30.159 749.444 31.2424 749.599 31.6853 750.18C32.1283 750.761 32.1178 751.539 32.089 752.256C32.2952 750.664 32.9628 749.128 33.9985 747.864C34.3236 747.467 34.8124 747.059 35.3159 747.211C35.8482 747.372 35.9792 748.022 35.9976 748.554C36.1572 753.169 34.7082 757.822 31.9327 761.607C31.0283 762.84 30.8239 764.403 30.6128 765.894C29.7183 772.21 28.231 778.451 26.1746 784.516C24.9512 788.124 23.4909 791.732 21.0362 794.716C19.7416 796.29 18.1964 797.658 16.6514 799.011C11.2751 803.719 5.81374 808.338 0.27064 812.867C-0.200673 812.867 0.0157542 812.139 0.372164 811.845C6.62883 806.684 13.1052 801.721 18.6908 795.902C20.0057 794.532 21.2757 793.109 22.2704 791.512C23.2279 789.976 23.9162 788.303 24.5562 786.623C27.3694 779.238 29.3308 771.559 30.3938 763.768C30.4701 763.209 30.5328 762.603 30.2371 762.115C33.9264 758.326 35.7609 752.96 35.1216 747.827C32.4806 748.986 33.6367 753.184 31.5531 755.117C31.5057 753.874 31.4584 752.631 31.4111 751.387C31.3975 751.029 31.3395 750.602 31.002 750.445C30.4452 750.184 29.9641 750.933 29.9077 751.522C29.8513 752.111 29.743 752.885 29.1314 752.982C29.3318 750.269 29.1626 747.53 28.6293 744.858C27.1761 746.149 27.2292 748.306 27.1928 750.199C27.1564 752.093 26.6406 754.352 24.7779 755.01C25.421 755.487 26.1806 754.594 26.922 754.272C28.1624 753.733 29.5834 755.223 29.2366 756.48C28.8897 757.737 27.4106 758.452 26.0472 758.446C26.7108 757.393 28.8382 757.303 28.7634 756.077C28.7263 755.47 28.0377 755.053 27.4003 755.058C26.7629 755.062 26.1763 755.368 25.6209 755.666C24.6409 756.193 23.5353 756.908 23.5107 757.98Z" fill="#00160A"/>
</svg>
